<svg width="344" height="334" viewBox="0 0 344 334" fill="none" xmlns="http://www.w3.org/2000/svg">
<path fill-rule="evenodd" clip-rule="evenodd" d="M319.494 202.469C319.494 202.469 376.64 189.119 388.149 159.721C396.114 139.376 380.33 109.567 371.621 106.306C362.912 103.045 323.418 172.388 317.25 157.578C314.504 150.983 328.472 137.175 339.848 122.188C351.225 107.201 363.322 95.0626 359.285 76.6845C355.249 58.3064 310.731 34.185 310.547 35.0186C309.983 37.5851 307.446 95.6128 306.425 102.726C301.371 137.94 290.352 133.529 286.24 133.266C268.978 132.159 312.579 50.2649 294.979 26.2121C277.378 2.15923 222.347 -1.08678 220.89 1.84066C218.397 6.84962 227.991 23.9057 230.967 41.7283C233.756 58.4237 229.908 76.1034 228.765 76.2237C216.358 77.5304 213.612 51.1865 204.559 33.2278C195.854 15.9606 191.093 8.73955 183.951 4.47749C176.809 0.215418 120.039 1.18016 117.781 11.4463C117.781 11.4463 138.233 34.781 146.687 51.4402C155.142 68.0993 167.76 96.4375 155.226 104.443C142.692 112.449 139.446 65.9917 129.99 47.7667C120.533 29.5417 100.015 18.7494 96.9752 20.3231C87.857 25.044 54.7364 47.975 47.1492 63.1768C45.0107 67.4617 60.7973 74.2567 75.1529 82.7913C88.371 90.6496 100.294 100.357 97.7364 102.559C91.4119 108.004 41.4749 76.7277 32.9213 78.8821C24.3676 81.0364 -0.237814 100.921 0.32962 110.728C4.80375 133.239 17.8589 153.242 22.5318 150.592C37.9171 141.869 54.3085 139.593 57.311 139.408C66.8667 138.82 88.7024 143.623 83.4375 149.192C78.1726 154.761 70.7784 156.818 61.0653 159.07C46.7403 162.39 24.5361 153.724 24.5361 153.724C24.5361 153.724 29.8852 184.499 38.594 187.761C47.3029 191.022 81.6726 187.82 93.6421 182.381C105.612 176.942 136.509 152.795 142.522 162.19C148.535 171.586 120.682 190.129 89.972 199.063C67.738 205.532 43.8122 199.573 44.4798 203.855C48.3893 228.932 68.5815 253.129 75.546 252.396C96.2243 250.218 116.735 240.86 131.978 228.485C152.778 211.598 165.313 184.053 178.797 180.934C181.613 180.283 183.935 182.064 183.808 188.763C183.681 195.462 168.597 217.983 141.561 240.011C115.891 260.927 87.6644 265.708 89.4207 268.902C102.886 293.39 151.914 312.067 154.137 311.392C164.418 308.272 176.354 296.099 193.715 278.392C211.077 260.686 216.267 224.006 227.253 223.883C232.99 223.819 240.253 232.124 238.841 238.541C237.429 244.957 227.12 260.106 206.842 279.935C187.656 298.696 164.528 316.443 165.852 319.351C168.576 325.332 207.872 335.297 226.221 332.632C232.489 331.721 247.882 317.945 257.091 296.371C262.793 283.013 261.884 267.874 265.56 257.873C268.28 250.473 275.73 245.766 278.659 247.3C291.941 254.259 252.884 327.735 256.173 331.149C259.462 334.563 316.048 316.068 332.253 291.38C336.897 264.149 301.925 216.98 310.968 216.738C324.792 216.368 391.225 255.92 404.563 287.107C408.106 286.965 411.162 286.888 413.769 286.847L426.244 286.495C395.432 224.556 319.494 202.469 319.494 202.469ZM269.57 141.707C274.143 145.404 278.59 155.799 278.18 163.782C277.771 171.764 274.734 175.332 271.221 177.05C266.609 179.306 262.6 177.146 258.377 174.224C252.996 170.502 252.111 165.646 250.942 159.23L250.924 159.131L250.871 158.84C249.221 149.786 247.053 137.899 256.006 136.032C261.627 134.86 264.997 138.01 269.57 141.707ZM264.418 195.734C268.803 195.888 271.314 198.263 273.846 201.844C278.885 208.97 273.102 215.936 269.047 223.66C265.201 230.987 257.388 239.93 254.819 239.365C252.25 238.8 250.373 228.969 250.373 228.969C250.373 228.969 248.456 218.062 250.19 211.439C251.671 205.779 252.241 201.36 257.149 198.171C259.658 196.54 261.425 195.629 264.418 195.734ZM226.845 109.436C232.039 112.041 234.379 116.177 234.862 121.963C235.34 127.68 234.627 133.678 229.188 135.514C224.782 137.001 221.286 134.884 217.91 131.687C214.703 128.65 213.983 125.675 213.464 121.291C212.86 116.195 211.874 111.081 216.287 108.459C219.845 106.344 223.144 107.579 226.845 109.436ZM199.307 106.069C206.787 112.008 209.201 128.426 209.201 128.426C210.076 136.691 206.059 142.007 199.109 143.696C194.618 144.787 191.482 143.579 187.549 141.152C181.342 137.323 179.889 133.583 177.252 126.794L177.245 126.777C174.916 120.782 173.286 114.892 175.777 108.964C178.027 103.612 181.224 100.964 187.027 100.676C192.195 100.42 195.135 102.755 199.16 105.952L199.307 106.069ZM219.307 180.428C223.347 179.686 226.733 179.73 229.582 182.689C233.857 187.126 231.177 193.803 226.914 200.937C222.652 208.072 221.842 209.094 216.102 213.358C211.645 216.669 209.403 219.903 203.85 220.08C199.744 220.211 194.295 220.668 192.573 216.254C190.851 211.839 195.301 205.901 198.812 200.136C202.323 194.372 215.266 181.17 219.307 180.428Z" fill="#A3DCCD"/>
</svg>
