<svg width="338" height="230" viewBox="0 0 338 230" fill="none" xmlns="http://www.w3.org/2000/svg">
<g filter="url(#filter0_d_323_3042)">
<path d="M146.049 197.038L211.812 195.946L212 209.467L212.156 220.671L146.393 221.763L146.049 197.038Z" fill="#BA9E76"/>
<path d="M146.049 197.038L146.393 221.763L137.331 216.276L137.269 211.806L141.761 211.743L141.771 212.502L142.512 212.492L142.501 211.733L142.282 195.968L146.049 197.038Z" fill="#956F4A"/>
<path d="M211.812 195.946L146.049 197.038L142.282 195.968L209.18 194.86L211.812 195.946Z" fill="#CEBEA7"/>
<path d="M209.18 194.86L142.282 195.968L142.501 211.733L141.761 211.743L137.269 211.806L7.00009 213.103L4.52384 -1.20417e-05L331.132 -5.9951e-06L334 209.189L212 209.467L211.812 195.946L209.18 194.86Z" fill="#F4EEEA"/>
</g>
<defs>
<filter id="filter0_d_323_3042" x="0.523834" y="-1.52588e-05" width="337.476" height="229.763" filterUnits="userSpaceOnUse" color-interpolation-filters="sRGB">
<feFlood flood-opacity="0" result="BackgroundImageFix"/>
<feColorMatrix in="SourceAlpha" type="matrix" values="0 0 0 0 0 0 0 0 0 0 0 0 0 0 0 0 0 0 127 0" result="hardAlpha"/>
<feOffset dy="4"/>
<feGaussianBlur stdDeviation="2"/>
<feComposite in2="hardAlpha" operator="out"/>
<feColorMatrix type="matrix" values="0 0 0 0 0 0 0 0 0 0 0 0 0 0 0 0 0 0 0.25 0"/>
<feBlend mode="normal" in2="BackgroundImageFix" result="effect1_dropShadow_323_3042"/>
<feBlend mode="normal" in="SourceGraphic" in2="effect1_dropShadow_323_3042" result="shape"/>
</filter>
</defs>
</svg>
