<svg width="286" height="88" viewBox="0 0 286 88" fill="none" xmlns="http://www.w3.org/2000/svg">
<path d="M1 62.6746C0.999898 53.6746 12.5 45.6746 17 42.6746C21.5 39.6746 49.2573 29.0036 50 30.6746C52 35.1746 58.5 43.6746 58.5 43.6746C58.5 43.6746 54.6109 27.5329 57 27.1746C77 24.1746 102.5 25.1746 102.5 25.1746L112 41.6746C112 41.6746 107.362 24.3039 109 24.1746C128 22.6746 158.345 12.7411 159.5 13.1744C163.5 14.6746 172 34.1746 172 34.1746C172 34.1746 164.959 11.6045 166.5 11.1745C188 5.17456 233.14 -0.0293636 234 1.17463C235.26 2.93908 233.434 11.0573 234 18.6746C234.557 26.1669 237.512 33.1745 238 33.1745C244 33.1745 253.31 30.4281 262.5 26.1745C270.28 22.5734 279.795 13.4586 281.5 13.1744C284.5 12.6744 285.5 17.6744 285 20.1745C284.712 21.6142 274.32 29.1857 263 33.6746C254.663 36.9806 244.909 37.4021 243 38.6745C243 38.6745 243.082 49.5974 246 55.6746C249.586 63.1424 261 70.6746 261 70.6746C261 70.6746 234 77.6746 229.5 76.6746C225 75.6746 220.5 52.1746 219 51.6746C217.5 51.1746 222.789 77.6379 221 78.1746C211 81.1746 161.333 83.1327 159.5 82.6746C156.901 82.0248 155.393 75.1537 154 69.1746C153.249 65.951 153.283 61.9228 151.5 61.6746C149.543 61.4022 152 80.6746 151.5 82.6746C143.63 83.1468 136 81.6746 122.5 82.6746C109 83.6746 71.1946 87.5172 64 87.1746C53.5 86.6746 40.5 85.6746 39 83.1746C37.5 80.6746 38.5 64.1746 38.5 64.1746C38.5 64.1746 35.5 79.6746 34.5 82.1746C33.5 84.6746 1.0001 71.6746 1 62.6746Z" fill="#A3DCCD"/>
<path d="M281.5 13.1744L281.418 12.6813L281.5 13.1744ZM261 70.6746L261.125 71.1586L262.214 70.8764L261.275 70.2572L261 70.6746ZM285 20.1745L285.49 20.2725L285 20.1745ZM243 38.6745L242.723 38.2585L242.498 38.4083L242.5 38.6783L243 38.6745ZM262.5 26.1745L262.29 25.7208L262.5 26.1745ZM234 1.17463L233.593 1.46525L234 1.17463ZM234 18.6746L234.499 18.6375L234 18.6746ZM166.5 11.1745L166.634 11.6561L166.5 11.1745ZM172 34.1746L171.542 34.3744C171.648 34.6178 171.926 34.7358 172.175 34.6431C172.423 34.5503 172.556 34.2792 172.477 34.0257L172 34.1746ZM159.5 13.1744L159.324 13.6426L159.5 13.1744ZM109 24.1746L109.039 24.673L109 24.1746ZM112 41.6746L111.567 41.924L112.483 41.5456L112 41.6746ZM102.5 25.1746L102.933 24.9251L102.796 24.6858L102.52 24.6749L102.5 25.1746ZM57 27.1746L57.0742 27.669L57 27.1746ZM58.5 43.6746L58.1028 43.9783L58.9861 43.5574L58.5 43.6746ZM50 30.6746L50.4569 30.4715L50 30.6746ZM38.5 64.1746L38.9991 64.2048L38.0091 64.0795L38.5 64.1746ZM64 87.1746L64.0238 86.6751L64 87.1746ZM151.5 82.6746L151.53 83.1737L151.896 83.1517L151.985 82.7958L151.5 82.6746ZM151.5 61.6746L151.431 62.1698L151.5 61.6746ZM154 69.1746L153.513 69.288L154 69.1746ZM221 78.1746L221.144 78.6535L221 78.1746ZM246 55.6746L246.451 55.4581L246 55.6746ZM263 33.6746L262.816 33.2098L263 33.6746ZM34.0358 81.9889C34.082 81.8731 34.1571 81.9348 33.8915 81.971C33.6646 82.0019 33.3164 81.9928 32.8408 81.9281C31.8979 81.8 30.5777 81.4718 28.9945 80.9713C25.8347 79.9722 21.702 78.3104 17.5959 76.2885C13.4875 74.2654 9.42902 71.8931 6.40577 69.4791C4.89369 68.2718 3.65657 67.0666 2.80137 65.9029C1.94288 64.7347 1.50001 63.6506 1.5 62.6746L0.5 62.6746C0.500014 63.9486 1.07279 65.2394 1.99556 66.4951C2.92163 67.7552 4.23139 69.0226 5.78181 70.2606C8.88356 72.7373 13.0126 75.1462 17.1541 77.1856C21.2981 79.2262 25.4778 80.9082 28.693 81.9247C30.2973 82.432 31.6802 82.7796 32.7061 82.919C33.2149 82.9882 33.6674 83.0108 34.0265 82.9619C34.3468 82.9182 34.7929 82.7885 34.9642 82.3603L34.0358 81.9889ZM281.582 13.6676C282.173 13.5691 282.651 13.7352 283.056 14.0845C283.478 14.4475 283.83 15.0194 284.094 15.725C284.625 17.1413 284.741 18.9216 284.51 20.0764L285.49 20.2725C285.759 18.9272 285.625 16.9575 285.031 15.3738C284.733 14.5794 284.303 13.8388 283.709 13.3269C283.099 12.8011 282.327 12.5297 281.418 12.6813L281.582 13.6676ZM238 33.6745C244.11 33.6745 253.5 30.8913 262.71 26.6283L262.29 25.7208C253.121 29.9648 243.89 32.6745 238 32.6745V33.6745ZM262.71 26.6283C266.658 24.801 271.022 21.5885 274.585 18.8258C276.379 17.4344 277.956 16.1678 279.208 15.2176C279.832 14.7441 280.362 14.3598 280.785 14.0869C280.996 13.9503 281.173 13.8464 281.316 13.7743C281.467 13.6983 281.55 13.6729 281.582 13.6676L281.418 12.6813C281.236 12.7115 281.046 12.7906 280.866 12.8812C280.679 12.9755 280.469 13.1001 280.242 13.247C279.787 13.541 279.233 13.9436 278.604 14.4208C277.35 15.3721 275.742 16.6626 273.972 18.0355C270.405 20.8015 266.122 23.947 262.29 25.7208L262.71 26.6283ZM233.593 1.46525C233.687 1.59725 233.78 1.83182 233.846 2.20785C233.911 2.57611 233.945 3.03776 233.952 3.58878C233.967 4.6921 233.876 6.08866 233.762 7.69425C233.534 10.8865 233.215 14.8595 233.501 18.7116L234.499 18.6375C234.219 14.8725 234.53 10.9776 234.759 7.76536C234.873 6.16868 234.967 4.72876 234.952 3.57562C234.944 2.99841 234.909 2.47683 234.831 2.03364C234.754 1.59823 234.628 1.19313 234.407 0.88401L233.593 1.46525ZM233.501 18.7116C233.783 22.5073 234.672 26.1723 235.55 28.888C235.989 30.2462 236.429 31.3751 236.793 32.1706C236.974 32.5665 237.142 32.8911 237.287 33.1233C237.358 33.2373 237.433 33.3455 237.512 33.4313C237.551 33.4737 237.602 33.5246 237.667 33.5681C237.724 33.607 237.841 33.6745 238 33.6745V32.6745C238.128 32.6745 238.21 32.7284 238.228 32.7402C238.252 32.7568 238.26 32.7674 238.25 32.7567C238.231 32.7362 238.193 32.6865 238.135 32.5943C238.023 32.4139 237.875 32.1326 237.702 31.7544C237.358 31.0019 236.932 29.9106 236.502 28.5803C235.641 25.9191 234.773 22.3342 234.499 18.6375L233.501 18.7116ZM166.634 11.6561C177.349 8.66595 193.981 5.86858 208.057 3.9686C215.091 3.01908 221.479 2.29496 226.158 1.88351C228.498 1.67768 230.405 1.55071 231.749 1.51234C232.423 1.4931 232.943 1.49654 233.302 1.52141C233.483 1.53397 233.606 1.55097 233.681 1.56794C233.719 1.57651 233.729 1.58173 233.722 1.57861C233.718 1.5767 233.702 1.56951 233.681 1.55461C233.661 1.54003 233.626 1.51178 233.593 1.46525L234.407 0.88401C234.318 0.760193 234.201 0.697572 234.133 0.667127C234.057 0.632596 233.976 0.609488 233.902 0.592782C233.755 0.559189 233.573 0.537794 233.371 0.523803C232.963 0.495555 232.405 0.493201 231.72 0.512748C230.347 0.551951 228.418 0.680887 226.07 0.887357C221.371 1.30052 214.968 2.02663 207.923 2.97759C193.839 4.87857 177.151 7.68315 166.366 10.6929L166.634 11.6561ZM172 34.1746C172.477 34.0257 172.477 34.0256 172.477 34.0254C172.477 34.0253 172.477 34.025 172.477 34.0247C172.477 34.024 172.476 34.023 172.476 34.0217C172.475 34.019 172.474 34.0149 172.472 34.0096C172.469 33.9988 172.464 33.9827 172.457 33.9614C172.444 33.9189 172.424 33.8557 172.399 33.7732C172.348 33.6081 172.273 33.3659 172.178 33.0573C171.989 32.4402 171.721 31.5579 171.403 30.4978C170.767 28.3771 169.937 25.5463 169.154 22.7031C168.371 19.8574 167.639 17.0091 167.199 14.8499C166.979 13.7669 166.835 12.8763 166.793 12.2521C166.771 11.9355 166.778 11.7189 166.8 11.5899C166.812 11.5247 166.822 11.5127 166.813 11.5279C166.801 11.5488 166.749 11.6243 166.634 11.6561L166.366 10.6929C166.155 10.7517 166.023 10.8973 165.947 11.0288C165.874 11.1546 165.837 11.2937 165.815 11.4175C165.772 11.6664 165.772 11.9787 165.795 12.3204C165.842 13.0128 165.997 13.9561 166.219 15.0495C166.666 17.2431 167.406 20.1179 168.19 22.9685C168.975 25.8215 169.808 28.6601 170.445 30.7848C170.763 31.8473 171.033 32.7317 171.222 33.3505C171.317 33.6599 171.392 33.903 171.444 34.0688C171.469 34.1517 171.489 34.2153 171.502 34.2582C171.509 34.2796 171.514 34.2959 171.517 34.3068C171.519 34.3123 171.52 34.3164 171.521 34.3192C171.522 34.3206 171.522 34.3217 171.522 34.3224C171.522 34.3227 171.523 34.323 171.523 34.3232C171.523 34.3234 171.523 34.3235 172 34.1746ZM159.324 13.6426C159.708 13.7865 160.212 14.1798 160.816 14.8438C161.407 15.4949 162.052 16.357 162.725 17.3659C164.069 19.3826 165.497 21.9421 166.806 24.4672C168.114 26.9899 169.298 29.4672 170.156 31.3147C170.584 32.2382 170.931 33.0038 171.171 33.5382C171.29 33.8054 171.383 34.0148 171.446 34.1572C171.478 34.2284 171.502 34.2829 171.518 34.3194C171.526 34.3377 171.532 34.3515 171.536 34.3607C171.538 34.3653 171.539 34.3688 171.54 34.3711C171.541 34.3722 171.541 34.373 171.541 34.3736C171.541 34.3739 171.541 34.3741 171.542 34.3742C171.542 34.3743 171.542 34.3744 172 34.1746C172.458 33.9748 172.458 33.9747 172.458 33.9745C172.458 33.9743 172.458 33.9741 172.458 33.9737C172.458 33.9731 172.457 33.9722 172.457 33.971C172.456 33.9685 172.454 33.9649 172.452 33.9601C172.448 33.9506 172.442 33.9364 172.433 33.9177C172.417 33.8804 172.393 33.8252 172.361 33.7532C172.297 33.6093 172.204 33.3982 172.083 33.1293C171.842 32.5914 171.494 31.8218 171.063 30.8937C170.202 29.0381 169.011 26.5467 167.694 24.0069C166.378 21.4694 164.931 18.8727 163.557 16.8112C162.87 15.7811 162.194 14.8737 161.555 14.1712C160.929 13.4816 160.292 12.9374 159.676 12.7063L159.324 13.6426ZM109.039 24.673C118.588 23.9192 130.962 21.0502 141.067 18.4335C146.123 17.1243 150.624 15.8748 153.924 14.9821C155.577 14.5351 156.924 14.1786 157.894 13.9475C158.379 13.8317 158.761 13.7496 159.035 13.703C159.173 13.6796 159.273 13.667 159.341 13.6625C159.436 13.6561 159.401 13.6712 159.324 13.6426L159.676 12.7063C159.527 12.6506 159.362 12.6588 159.274 12.6647C159.158 12.6725 159.02 12.6912 158.867 12.7172C158.561 12.7693 158.153 12.8575 157.662 12.9748C156.676 13.2099 155.315 13.5701 153.663 14.0168C150.355 14.9116 145.866 16.158 140.816 17.4655C130.711 20.0822 118.412 22.9299 108.961 23.6761L109.039 24.673ZM112 41.6746C112.483 41.5456 112.483 41.5455 112.483 41.5454C112.483 41.5453 112.483 41.5451 112.483 41.5449C112.483 41.5444 112.483 41.5436 112.482 41.5426C112.482 41.5405 112.481 41.5374 112.48 41.5333C112.478 41.5251 112.474 41.5128 112.47 41.4964C112.461 41.4638 112.448 41.4153 112.432 41.3519C112.398 41.2252 112.349 41.0391 112.288 40.802C112.164 40.328 111.99 39.6503 111.786 38.8367C111.377 37.2088 110.85 35.0388 110.374 32.8661C109.897 30.6898 109.475 28.5248 109.274 26.9019C109.172 26.0855 109.131 25.4339 109.158 24.9943C109.171 24.7693 109.201 24.6421 109.225 24.5849C109.25 24.5255 109.21 24.6595 109.039 24.673L108.961 23.6761C108.585 23.7058 108.39 23.9906 108.302 24.2C108.214 24.4114 108.176 24.6706 108.159 24.933C108.127 25.4682 108.178 26.1948 108.281 27.0251C108.489 28.6956 108.919 30.8975 109.397 33.08C109.876 35.2662 110.406 37.4469 110.816 39.0801C111.021 39.8969 111.196 40.5774 111.32 41.0538C111.382 41.292 111.431 41.4792 111.465 41.607C111.482 41.6709 111.495 41.7199 111.503 41.753C111.508 41.7696 111.511 41.7821 111.513 41.7906C111.515 41.7948 111.515 41.7981 111.516 41.8002C111.516 41.8013 111.517 41.8021 111.517 41.8027C111.517 41.8029 111.517 41.8032 111.517 41.8033C111.517 41.8035 111.517 41.8035 112 41.6746ZM102.067 25.424L111.567 41.924L112.433 41.4251L102.933 24.9251L102.067 25.424ZM57.0742 27.669C67.0414 26.1739 78.3904 25.6744 87.257 25.5495C91.6883 25.4871 95.4955 25.5183 98.1944 25.5651C99.5439 25.5885 100.616 25.6158 101.351 25.6372C101.718 25.648 102.001 25.6572 102.192 25.6638C102.287 25.667 102.359 25.6697 102.408 25.6714C102.432 25.6723 102.45 25.673 102.462 25.6735C102.468 25.6737 102.473 25.6739 102.476 25.674C102.478 25.6741 102.479 25.6741 102.479 25.6741C102.48 25.6742 102.48 25.6742 102.48 25.6742C102.48 25.6742 102.48 25.6742 102.5 25.1746C102.52 24.6749 102.519 24.6749 102.519 24.6749C102.519 24.6749 102.519 24.6749 102.518 24.6749C102.517 24.6749 102.516 24.6748 102.515 24.6748C102.511 24.6746 102.507 24.6744 102.5 24.6742C102.488 24.6737 102.469 24.673 102.445 24.6721C102.395 24.6703 102.322 24.6677 102.226 24.6644C102.033 24.6577 101.749 24.6484 101.38 24.6377C100.642 24.6161 99.5655 24.5887 98.2118 24.5653C95.5045 24.5183 91.6867 24.487 87.2429 24.5496C78.3595 24.6747 66.9586 25.1752 56.9258 26.6801L57.0742 27.669ZM58.5 43.6746C58.9861 43.5574 58.9861 43.5574 58.986 43.5573C58.986 43.5572 58.986 43.5571 58.9859 43.5568C58.9858 43.5564 58.9857 43.5557 58.9854 43.5548C58.985 43.5529 58.9843 43.5501 58.9834 43.5463C58.9816 43.5387 58.9789 43.5273 58.9753 43.5123C58.9681 43.4821 58.9574 43.4372 58.9435 43.3784C58.9158 43.261 58.8754 43.0883 58.8248 42.8682C58.7236 42.428 58.5815 41.7984 58.4184 41.0415C58.0921 39.5271 57.6824 37.5067 57.3474 35.4775C57.0115 33.4429 56.7543 31.4208 56.7264 29.8947C56.7123 29.1264 56.7575 28.5204 56.8628 28.1109C56.9154 27.9061 56.9751 27.7834 57.0241 27.7177C57.0468 27.6872 57.0625 27.6754 57.068 27.6718C57.0719 27.6692 57.0726 27.6693 57.0742 27.669L56.9258 26.6801C56.2972 26.7744 56.0219 27.3654 55.8943 27.8619C55.7549 28.4038 55.712 29.1176 55.7265 29.913C55.7559 31.5143 56.023 33.5948 56.3608 35.6404C56.6994 37.6914 57.1126 39.7289 57.4409 41.2521C57.6051 42.0142 57.7482 42.6484 57.8503 43.0924C57.9013 43.3143 57.9421 43.4888 57.9702 43.608C57.9843 43.6675 57.9952 43.7133 58.0025 43.7442C58.0062 43.7597 58.009 43.7715 58.011 43.7794C58.0119 43.7834 58.0126 43.7864 58.0131 43.7885C58.0134 43.7895 58.0136 43.7903 58.0137 43.7908C58.0138 43.7911 58.0138 43.7913 58.0138 43.7914C58.0139 43.7916 58.0139 43.7917 58.5 43.6746ZM49.5431 30.8776C50.5651 33.1773 52.7171 36.4638 54.5899 39.1482C55.5307 40.4965 56.4084 41.7035 57.0509 42.5732C57.3723 43.0082 57.6349 43.359 57.8174 43.6013C57.9086 43.7225 57.9798 43.8165 58.0283 43.8803C58.0525 43.9123 58.071 43.9366 58.0836 43.9531C58.0899 43.9613 58.0946 43.9676 58.0978 43.9718C58.0994 43.9739 58.1007 43.9755 58.1015 43.9766C58.1019 43.9771 58.1022 43.9775 58.1024 43.9778C58.1026 43.978 58.1026 43.9781 58.1027 43.9781C58.1028 43.9782 58.1028 43.9783 58.5 43.6746C58.8972 43.3708 58.8972 43.3708 58.8971 43.3708C58.8971 43.3707 58.897 43.3706 58.8969 43.3705C58.8968 43.3703 58.8965 43.3699 58.8961 43.3695C58.8954 43.3685 58.8942 43.367 58.8927 43.365C58.8897 43.361 58.8851 43.355 58.879 43.347C58.8668 43.331 58.8486 43.3071 58.8247 43.2757C58.777 43.2128 58.7066 43.1198 58.6162 42.9998C58.4354 42.7596 58.1746 42.4113 57.8553 41.979C57.2166 41.1144 56.3443 39.9151 55.4101 38.576C53.5329 35.8853 51.4348 32.6718 50.4569 30.4715L49.5431 30.8776ZM1.5 62.6746C1.49995 58.3791 4.25429 54.2519 7.66919 50.7749C11.0684 47.314 15.0318 44.5876 17.2773 43.0906L16.7226 42.2585C14.4682 43.7615 10.4316 46.5352 6.95574 50.0742C3.49561 53.5972 0.499947 57.97 0.5 62.6746L1.5 62.6746ZM17.2773 43.0906C18.3577 42.3703 20.8927 41.1581 24.1478 39.7583C27.3859 38.3658 31.293 36.8059 35.0838 35.3914C38.8761 33.9763 42.5433 32.71 45.3036 31.9026C46.6867 31.4981 47.8261 31.2135 48.6344 31.0808C49.0425 31.0138 49.339 30.9902 49.5302 31.0003C49.5758 31.0027 49.6105 31.0068 49.6358 31.0113C49.6483 31.0135 49.6576 31.0156 49.664 31.0173C49.6704 31.019 49.6731 31.0201 49.6727 31.0199C49.6724 31.0198 49.668 31.0181 49.6606 31.014C49.6532 31.0098 49.642 31.0028 49.6287 30.9919C49.6008 30.9691 49.5671 30.9316 49.5431 30.8776L50.4569 30.4715C50.3602 30.2539 50.1765 30.1425 50.0328 30.087C49.8891 30.0315 49.731 30.0095 49.5827 30.0017C49.2835 29.9859 48.9031 30.0233 48.4724 30.094C47.6029 30.2367 46.4168 30.5351 45.0229 30.9428C42.2292 31.76 38.5365 33.0357 34.7342 34.4545C30.9303 35.8739 27.0079 37.4398 23.7527 38.8396C20.5144 40.2322 17.8923 41.4788 16.7226 42.2585L17.2773 43.0906ZM38.5 64.1746C38.0091 64.0795 38.0091 64.0796 38.0091 64.0797C38.0091 64.0798 38.009 64.08 38.009 64.0802C38.0089 64.0807 38.0088 64.0814 38.0086 64.0823C38.0082 64.0842 38.0077 64.087 38.007 64.0907C38.0055 64.0981 38.0034 64.1092 38.0005 64.1238C37.9948 64.1532 37.9864 64.1967 37.9753 64.2537C37.9531 64.3677 37.9204 64.5352 37.8785 64.7493C37.7946 65.1776 37.6736 65.7924 37.5252 66.5379C37.2286 68.0291 36.8226 70.0431 36.3856 72.1348C35.9484 74.227 35.4806 76.3945 35.06 78.1936C34.6354 80.0099 34.2688 81.4064 34.0358 81.9889L34.9642 82.3603C35.2312 81.6928 35.6146 80.2142 36.0337 78.4212C36.4569 76.6109 36.9266 74.4346 37.3644 72.3393C37.8024 70.2435 38.2089 68.2262 38.506 66.7331C38.6546 65.9864 38.7757 65.3707 38.8598 64.9416C38.9018 64.727 38.9346 64.5591 38.9569 64.4448C38.968 64.3876 38.9765 64.3439 38.9822 64.3144C38.9851 64.2996 38.9872 64.2884 38.9887 64.2809C38.9894 64.2772 38.99 64.2744 38.9903 64.2725C38.9905 64.2715 38.9907 64.2708 38.9907 64.2703C38.9908 64.2701 38.9908 64.2699 38.9909 64.2698C38.9909 64.2696 38.9909 64.2696 38.5 64.1746ZM39.4287 82.9173C39.2934 82.6917 39.1562 82.2422 39.0409 81.5574C38.9288 80.8912 38.8462 80.0609 38.7881 79.1203C38.6721 77.2404 38.6563 74.9581 38.6875 72.7441C38.7186 70.532 38.7965 68.3967 38.8667 66.8139C38.9018 66.0227 38.9349 65.3699 38.9592 64.9152C38.9714 64.6878 38.9814 64.5099 38.9883 64.3891C38.9918 64.3286 38.9945 64.2824 38.9963 64.2514C38.9972 64.2359 38.9979 64.2242 38.9984 64.2164C38.9986 64.2125 38.9988 64.2096 38.9989 64.2076C38.999 64.2067 38.999 64.2059 38.999 64.2055C38.9991 64.2052 38.9991 64.2051 38.9991 64.2049C38.9991 64.2048 38.9991 64.2048 38.5 64.1746C38.0009 64.1443 38.0009 64.1444 38.0009 64.1446C38.0009 64.1447 38.0009 64.1449 38.0009 64.1452C38.0008 64.1457 38.0008 64.1465 38.0007 64.1475C38.0006 64.1496 38.0004 64.1526 38.0002 64.1567C37.9997 64.1647 37.999 64.1767 37.998 64.1925C37.9962 64.2241 37.9935 64.2709 37.99 64.3319C37.983 64.4539 37.9729 64.633 37.9607 64.8617C37.9362 65.3191 37.9029 65.9749 37.8677 66.7696C37.7972 68.3586 37.7189 70.5046 37.6875 72.73C37.6562 74.9536 37.6717 77.265 37.79 79.1819C37.8491 80.1398 37.9345 81.0087 38.0548 81.7234C38.1719 82.4194 38.3316 83.0324 38.5713 83.4318L39.4287 82.9173ZM64.0238 86.6751C58.7762 86.4252 52.9185 86.051 48.1902 85.4288C45.8242 85.1175 43.7584 84.7463 42.1992 84.303C41.4191 84.0812 40.7819 83.8458 40.3032 83.5992C39.8132 83.3469 39.5449 83.1109 39.4287 82.9173L38.5713 83.4318C38.8301 83.8633 39.2961 84.2054 39.8453 84.4882C40.4056 84.7768 41.1122 85.0336 41.9258 85.2649C43.5541 85.7278 45.6758 86.1066 48.0598 86.4203C52.8315 87.0481 58.7238 87.4239 63.9762 87.674L64.0238 86.6751ZM151.569 61.1793C151.199 61.1278 150.93 61.3352 150.775 61.5548C150.63 61.7593 150.538 62.0269 150.472 62.3001C150.339 62.8574 150.272 63.6385 150.245 64.545C150.192 66.3696 150.301 68.8358 150.455 71.3529C150.606 73.8363 150.81 76.5028 150.937 78.5423C151.001 79.5827 151.048 80.4903 151.063 81.1976C151.071 81.5515 151.071 81.8497 151.061 82.0863C151.052 82.3321 151.033 82.4812 151.015 82.5533L151.985 82.7958C152.03 82.618 152.05 82.3821 152.061 82.1259C152.071 81.8607 152.071 81.54 152.063 81.176C152.047 80.4477 152 79.5236 151.935 78.4803C151.803 76.3522 151.608 73.8426 151.453 71.292C151.299 68.7751 151.193 66.3492 151.245 64.5743C151.271 63.6811 151.336 62.9856 151.445 62.5333C151.5 62.3017 151.557 62.1812 151.591 62.1323C151.615 62.0985 151.557 62.1873 151.431 62.1698L151.569 61.1793ZM159.621 82.1895C159.159 82.074 158.668 81.6564 158.162 80.8631C157.664 80.0827 157.203 79.0188 156.77 77.7604C155.905 75.2442 155.186 72.0619 154.487 69.0611L153.513 69.288C154.207 72.2663 154.938 75.5092 155.825 78.0858C156.268 79.3738 156.759 80.5232 157.318 81.4007C157.87 82.2653 158.541 82.9503 159.379 83.1596L159.621 82.1895ZM154.487 69.0611C154.304 68.2755 154.168 67.4362 154.037 66.6006C153.908 65.7726 153.784 64.9419 153.626 64.2042C153.47 63.4721 153.271 62.7841 152.974 62.2535C152.672 61.7154 152.228 61.2711 151.569 61.1793L151.431 62.1698C151.664 62.2022 151.884 62.3545 152.101 62.7422C152.323 63.1374 152.497 63.7045 152.648 64.4134C152.799 65.1168 152.918 65.9131 153.049 66.7547C153.18 67.5888 153.321 68.4619 153.513 69.288L154.487 69.0611ZM220.856 77.6956C218.411 78.4293 213.481 79.111 207.381 79.7101C201.299 80.3075 194.103 80.8188 187.158 81.2222C180.214 81.6256 173.526 81.921 168.46 82.0869C165.927 82.1698 163.801 82.2203 162.254 82.2358C161.479 82.2436 160.853 82.2425 160.394 82.2326C160.164 82.2276 159.98 82.2205 159.842 82.2115C159.773 82.207 159.719 82.2023 159.678 82.1976C159.634 82.1925 159.619 82.1889 159.621 82.1895L159.379 83.1596C159.485 83.1862 159.631 83.1999 159.777 83.2094C159.935 83.2197 160.135 83.2272 160.372 83.2324C160.847 83.2426 161.485 83.2436 162.264 83.2358C163.822 83.2201 165.956 83.1694 168.493 83.0863C173.567 82.9202 180.264 82.6244 187.216 82.2205C194.168 81.8167 201.378 81.3045 207.478 80.7053C213.561 80.1079 218.589 79.4198 221.144 78.6535L220.856 77.6956ZM243 38.6745C242.5 38.6783 242.5 38.6784 242.5 38.6785C242.5 38.6786 242.5 38.6788 242.5 38.679C242.5 38.6794 242.5 38.68 242.5 38.6808C242.5 38.6823 242.5 38.6844 242.5 38.6872C242.5 38.6929 242.5 38.7011 242.5 38.7119C242.501 38.7334 242.501 38.7652 242.502 38.8067C242.503 38.8897 242.505 39.0116 242.509 39.1685C242.517 39.4823 242.532 39.9364 242.559 40.4999C242.613 41.6266 242.715 43.1926 242.909 44.9505C243.295 48.4496 244.051 52.7715 245.549 55.891L246.451 55.4581C245.03 52.5005 244.287 48.3223 243.903 44.8408C243.711 43.1083 243.611 41.5637 243.558 40.4524C243.531 39.8969 243.517 39.4502 243.509 39.143C243.505 38.9893 243.503 38.8706 243.502 38.7906C243.501 38.7506 243.5 38.7203 243.5 38.7002C243.5 38.6901 243.5 38.6826 243.5 38.6777C243.5 38.6752 243.5 38.6734 243.5 38.6722C243.5 38.6717 243.5 38.6713 243.5 38.671C243.5 38.6709 243.5 38.6708 243.5 38.6708C243.5 38.6707 243.5 38.6708 243 38.6745ZM245.549 55.891C247.391 59.7255 251.211 63.5325 254.52 66.3554C256.183 67.7737 257.732 68.9564 258.866 69.7847C259.432 70.199 259.896 70.5249 260.218 70.7477C260.379 70.859 260.505 70.9447 260.591 71.0026C260.634 71.0316 260.667 71.0537 260.69 71.0687C260.701 71.0761 260.709 71.0818 260.715 71.0857C260.718 71.0877 260.72 71.0891 260.722 71.0902C260.723 71.0907 260.723 71.0911 260.724 71.0914C260.724 71.0915 260.724 71.0916 260.724 71.0917C260.724 71.0918 260.725 71.0919 261 70.6746C261.275 70.2572 261.275 70.2572 261.275 70.2572C261.275 70.2572 261.275 70.2571 261.275 70.2571C261.275 70.2569 261.274 70.2566 261.274 70.2562C261.273 70.2554 261.271 70.2541 261.268 70.2524C261.263 70.249 261.255 70.2438 261.245 70.2368C261.224 70.2228 261.192 70.2017 261.151 70.1737C261.068 70.1177 260.945 70.0342 260.787 69.925C260.471 69.7067 260.015 69.3858 259.456 68.9773C258.337 68.1599 256.808 66.9928 255.169 65.5946C251.875 62.7845 248.195 59.0915 246.451 55.4581L245.549 55.891ZM219.158 51.2002C219.059 51.1673 218.939 51.1536 218.811 51.1862C218.684 51.2186 218.587 51.2872 218.518 51.3586C218.395 51.487 218.34 51.6474 218.312 51.7559C218.25 51.9881 218.23 52.3014 218.229 52.6459C218.226 53.3522 218.305 54.3704 218.434 55.5816C218.692 58.0105 219.158 61.2992 219.613 64.604C220.069 67.9166 220.514 71.2465 220.733 73.7804C220.843 75.0501 220.895 76.1006 220.866 76.8423C220.852 77.2167 220.818 77.4843 220.773 77.6534C220.75 77.7383 220.731 77.7731 220.727 77.7786C220.725 77.783 220.761 77.7242 220.856 77.6956L221.144 78.6535C221.351 78.5914 221.485 78.4484 221.567 78.3212C221.649 78.1951 221.702 78.0509 221.739 77.9126C221.813 77.6354 221.851 77.2799 221.866 76.8804C221.896 76.0741 221.84 74.9729 221.729 73.6941C221.507 71.1308 221.059 67.7755 220.604 64.4677C220.147 61.1521 219.684 57.8851 219.428 55.476C219.3 54.2682 219.226 53.2968 219.229 52.6495C219.23 52.3171 219.252 52.1126 219.278 52.0119C219.294 51.9538 219.295 51.994 219.239 52.0515C219.205 52.0875 219.145 52.133 219.058 52.1551C218.971 52.1775 218.894 52.1662 218.842 52.1489L219.158 51.2002ZM261 70.6746C260.875 70.1906 260.874 70.1906 260.874 70.1906C260.874 70.1907 260.874 70.1908 260.873 70.1909C260.873 70.1911 260.871 70.1914 260.87 70.1918C260.867 70.1926 260.862 70.1939 260.855 70.1956C260.842 70.1989 260.823 70.2039 260.798 70.2105C260.746 70.2236 260.671 70.2432 260.571 70.2686C260.373 70.3195 260.081 70.3941 259.708 70.4887C258.962 70.6779 257.891 70.9472 256.591 71.2672C253.992 71.9073 250.48 72.7501 246.829 73.5615C243.176 74.3732 239.39 75.1521 236.24 75.6654C234.664 75.9222 233.255 76.1114 232.105 76.2055C230.937 76.3011 230.09 76.2935 229.608 76.1865L229.392 77.1627C230.035 77.3056 231.016 77.298 232.186 77.2022C233.374 77.105 234.812 76.9113 236.401 76.6524C239.579 76.1345 243.386 75.3509 247.046 74.5377C250.707 73.7241 254.227 72.8794 256.83 72.2382C258.133 71.9176 259.206 71.6477 259.954 71.458C260.328 71.3632 260.621 71.2884 260.82 71.2372C260.92 71.2117 260.996 71.192 261.047 71.1788C261.073 71.1721 261.092 71.1671 261.106 71.1637C261.112 71.162 261.117 71.1607 261.12 71.1599C261.122 71.1594 261.123 71.1591 261.124 71.1589C261.125 71.1588 261.125 71.1587 261.125 71.1586C261.125 71.1586 261.125 71.1586 261 70.6746ZM229.608 76.1865C229.226 76.1015 228.756 75.7478 228.218 75.033C227.692 74.335 227.159 73.3697 226.626 72.2084C225.563 69.8882 224.539 66.8676 223.603 63.8393C223.135 62.3276 222.691 60.819 222.275 59.4001C221.859 57.9828 221.471 56.6527 221.119 55.5043C220.767 54.3585 220.445 53.379 220.162 52.6665C220.021 52.3119 219.883 52.0066 219.748 51.775C219.68 51.6594 219.606 51.5483 219.523 51.455C219.446 51.3687 219.326 51.2561 219.158 51.2002L218.842 52.1489C218.768 52.1243 218.747 52.0878 218.776 52.1198C218.798 52.1449 218.835 52.1942 218.884 52.2785C218.982 52.4465 219.098 52.6983 219.233 53.0361C219.5 53.7084 219.812 54.6547 220.163 55.7979C220.513 56.9386 220.899 58.2608 221.315 59.6814C221.731 61.1005 222.177 62.6153 222.647 64.1348C223.586 67.169 224.625 70.2422 225.717 72.6251C226.263 73.8154 226.831 74.854 227.419 75.6345C227.994 76.3982 228.649 76.9976 229.392 77.1627L229.608 76.1865ZM284.51 20.0764C284.512 20.0637 284.503 20.1091 284.42 20.2278C284.344 20.3362 284.23 20.4739 284.073 20.6405C283.759 20.9731 283.302 21.3897 282.715 21.8742C281.542 22.8414 279.878 24.052 277.864 25.3619C273.837 27.9818 268.438 30.98 262.816 33.2098L263.184 34.1393C268.881 31.8802 274.339 28.8482 278.41 26.2002C280.445 24.8762 282.141 23.6434 283.351 22.6458C283.955 22.1478 284.446 21.7017 284.8 21.327C284.976 21.1401 285.126 20.9631 285.24 20.8002C285.346 20.6476 285.452 20.4652 285.49 20.2725L284.51 20.0764ZM262.816 33.2098C258.696 34.8434 254.215 35.7683 250.5 36.4452C248.652 36.7819 246.977 37.0601 245.657 37.3316C244.995 37.4678 244.408 37.6051 243.922 37.7511C243.444 37.8944 243.025 38.0571 242.723 38.2585L243.277 39.0905C243.452 38.9739 243.755 38.845 244.209 38.7089C244.654 38.5753 245.208 38.445 245.859 38.3111C247.165 38.0425 248.807 37.7701 250.679 37.4291C254.403 36.7506 258.967 35.8118 263.184 34.1393L262.816 33.2098ZM151.47 82.1755C147.567 82.4096 143.728 82.1618 139.131 81.977C134.543 81.7926 129.24 81.6739 122.463 82.1759L122.537 83.1732C129.26 82.6752 134.522 82.7926 139.091 82.9762C143.652 83.1595 147.563 83.4117 151.53 83.1737L151.47 82.1755ZM122.463 82.1759C115.709 82.6762 102.873 83.8878 90.8423 84.9299C78.7816 85.9747 67.578 86.8444 64.0238 86.6751L63.9762 87.674C67.6166 87.8474 78.913 86.967 90.9286 85.9262C102.975 84.8827 115.791 83.6729 122.537 83.1732L122.463 82.1759ZM12.6482 62.1521C27.0978 57.6677 34.5463 57.3687 43.5659 56.1702L43.4341 55.1789C34.4537 56.3722 26.9022 56.6814 12.3518 61.197L12.6482 62.1521ZM43.5659 56.1702C48.0398 55.5757 66.8797 54.641 90.589 53.3838C114.276 52.1278 142.782 50.5515 166.539 48.673L166.461 47.6761C142.718 49.5534 114.224 51.1292 90.536 52.3852C66.8704 53.6401 47.9602 54.5775 43.4341 55.1789L43.5659 56.1702ZM166.539 48.673C190.257 46.7977 201.804 46.2946 209.52 45.0093C217.302 43.713 221.243 41.6119 229.754 36.6055L229.246 35.7436C220.757 40.7372 216.948 42.7582 209.355 44.0229C201.696 45.2987 190.243 45.7957 166.461 47.6761L166.539 48.673Z" fill="white"/>
</svg>
