<svg width="169" height="189" viewBox="0 0 169 189" fill="none" xmlns="http://www.w3.org/2000/svg">
<path fill-rule="evenodd" clip-rule="evenodd" d="M57.2262 144.958C57.2262 144.958 58.6268 173.417 71.7188 181.533C80.7796 187.15 96.4579 182.28 98.7844 178.416C101.111 174.552 71.3098 149.516 78.9532 147.895C82.3565 147.173 87.7564 155.071 93.9486 161.838C100.141 168.604 104.903 175.46 114.071 175.174C123.239 174.889 138.705 155.801 138.321 155.639C137.14 155.14 109.531 148.749 106.209 147.627C89.7619 142.072 92.8419 137.208 93.3282 135.269C95.3702 127.131 130.831 155.248 143.908 148.997C156.985 142.746 163.359 116.778 162.082 115.821C159.898 114.185 150.878 117.239 142.069 117.069C133.818 116.908 125.675 113.494 125.718 112.938C126.177 106.901 139.052 107.943 148.458 105.226C157.502 102.614 161.382 100.988 164.051 97.9606C166.721 94.9333 171.227 67.7593 166.501 65.7651C166.501 65.7651 153.519 73.4404 144.789 75.9872C136.059 78.5339 121.363 82.0247 118.62 75.3293C115.878 68.6338 138.444 71.2329 148.013 68.3478C157.581 65.4627 164.554 56.636 164.065 55.0452C162.599 50.2729 154.5 32.4221 147.873 27.4446C146.005 26.0416 141.364 32.9676 136.014 39.0553C131.088 44.6608 125.389 49.483 124.557 48.0662C122.499 44.5623 141.871 23.5273 141.586 19.2535C141.302 14.9798 133.919 1.46399 129.165 0.859131C117.977 0.984182 107.24 5.4275 108.102 7.89374C110.94 16.0137 110.596 24.038 110.422 25.4872C109.868 30.0993 105.652 40.0893 103.442 37.0799C101.232 34.0706 100.893 30.3588 100.663 25.5231C100.325 18.3915 106.425 8.57048 106.425 8.57048C106.425 8.57048 91.1963 8.37514 88.8697 12.2394C86.5432 16.1036 85.0703 32.789 86.6312 38.9859C88.1921 45.1827 97.0684 62.0815 92.036 64.1117C87.0036 66.1419 80.548 51.1963 78.9512 35.7453C77.7952 24.5588 82.7478 13.6746 80.6356 13.6108C68.266 13.2373 54.8928 20.7117 54.635 24.1002C53.8693 34.1613 56.5622 44.7837 61.163 53.1614C67.4415 64.5939 79.5556 73.0344 79.871 79.7468C79.9368 81.1485 78.8791 82.0974 75.6773 81.4387C72.4755 80.7799 62.9943 71.572 54.796 56.7052C47.0116 42.5891 47.1894 28.694 45.5038 29.2468C32.58 33.4854 19.3308 55.2118 19.4597 56.3325C20.056 61.5166 24.8497 68.2988 31.8223 78.1637C38.795 88.0287 55.933 93.7799 55.0302 99.0329C54.5588 101.776 49.9395 104.5 46.9857 103.254C44.0318 102.007 37.6685 95.7355 29.9335 84.2895C22.615 73.4599 16.1275 60.8396 14.617 61.2119C11.5101 61.9777 3.29063 79.8382 2.96273 88.8313C2.85072 91.9032 8.11083 100.478 17.6519 106.798C23.5594 110.712 30.9 111.63 35.3749 114.277C38.6856 116.235 40.2912 120.21 39.2988 121.471C34.7989 127.187 2.97755 101.991 1.05213 103.255C-0.873295 104.52 3.04376 133.171 13.4662 143.107C26.1202 147.754 51.8046 135.279 51.129 139.616C50.0962 146.245 25.3111 174.412 9.18559 177.992C8.94345 179.695 8.71283 181.16 8.50434 182.407L7.58117 188.391C39.9855 179.219 57.2262 144.958 57.2262 144.958ZM90.7389 126.562C88.5655 128.414 83.1903 129.607 79.3977 128.699C75.6052 127.791 74.1598 126.023 73.6432 124.194C72.9648 121.792 74.3519 120.072 76.1228 118.317C78.3792 116.082 80.7853 116.094 83.9652 116.109L84.0142 116.109L84.1583 116.11C88.6451 116.13 94.5365 116.158 94.648 120.596C94.718 123.382 92.9123 124.71 90.7389 126.562ZM65.2776 119.279C64.82 121.358 63.4611 122.344 61.5217 123.233C57.6627 125.001 54.8284 121.619 51.4786 118.995C48.3013 116.506 44.6957 111.979 45.1916 110.804C45.6875 109.629 50.5668 109.611 50.5668 109.611C50.5668 109.611 55.966 109.67 58.9906 111.088C61.5755 112.301 63.6451 112.967 64.7452 115.593C65.3078 116.937 65.59 117.861 65.2776 119.279ZM109.957 109.056C108.252 111.302 106.064 112.049 103.247 111.763C100.463 111.481 97.6486 110.605 97.2442 107.846C96.9167 105.611 98.2377 104.132 100.067 102.806C101.804 101.547 103.294 101.47 105.442 101.613C107.939 101.78 110.478 101.766 111.349 104.106C112.052 105.993 111.171 107.456 109.957 109.056ZM113.982 96.2172C110.479 99.2562 102.393 98.9422 102.393 98.9422C98.3526 98.6218 96.1545 96.2304 95.953 92.7633C95.8228 90.523 96.6764 89.1347 98.1847 87.4745C100.565 84.8548 102.485 84.4954 105.973 83.8431L105.981 83.8415C109.06 83.2655 112.028 83.0136 114.653 84.7316C117.023 86.2828 118.014 88.0447 117.643 90.8393C117.314 93.3282 115.937 94.5223 114.051 96.1575L113.982 96.2172ZM76.5674 99.1212C76.5696 101.115 76.2521 102.727 74.5837 103.822C72.0811 105.466 69.1137 103.591 66.065 100.92C63.0162 98.2491 62.5967 97.7715 61.0543 94.6521C59.8566 92.2296 58.5017 90.8711 58.9027 88.206C59.1992 86.2349 59.457 83.594 61.7252 83.1665C63.9933 82.739 66.4517 85.3923 68.9091 87.5824C71.3666 89.7724 76.5651 97.1269 76.5674 99.1212Z" fill="#A3DCCD"/>
</svg>
