<svg width="283" height="150" viewBox="0 0 283 150" fill="none" xmlns="http://www.w3.org/2000/svg">
<path d="M2.99552 143.597C-1.77536 134.335 6.09706 119.863 9.24667 114.335C12.3963 108.806 35.9766 82.7643 37.6447 84.081C42.1367 87.6266 53.4889 92.8469 53.4889 92.8469C53.4889 92.8469 40.836 78.3463 43.1625 76.6812C62.6383 62.7426 90.0276 49.9361 90.0276 49.9361L108.78 61.7612C108.78 61.7612 94.6871 46.4022 96.344 45.3803C115.562 33.5278 142.258 6.84157 143.705 6.66058C148.713 6.034 168.003 21.4889 168.003 21.4889C168.003 21.4889 148.623 2.08305 150.018 0.804539C169.483 -17.0351 214.271 -46.882 215.815 -46.1096C218.078 -44.9777 220.457 -35.6325 225.092 -28.1011C229.65 -20.6931 236.477 -15.0855 236.991 -15.35C243.311 -18.6054 251.662 -26.4833 259.086 -35.8465C265.372 -43.7735 270.563 -58.3158 272.208 -59.5333C275.103 -61.6756 278.807 -57.0728 279.605 -54.2288C280.065 -52.591 273.132 -39.1608 263.589 -28.3998C256.56 -20.4744 246.509 -14.7479 245.173 -12.403C245.173 -12.403 251.049 -1.20708 257.344 3.46333C265.08 9.20255 281.095 10.7607 281.095 10.7607C281.095 10.7607 256.367 32.6136 251.097 34.0261C245.827 35.4386 228.63 13.6972 226.785 13.9966C224.94 14.2959 244.538 38.6588 242.939 40.1816C233.996 48.6945 182.719 77.6577 180.546 78.1805C177.464 78.922 172.233 72.6697 167.597 67.2723C165.097 64.3625 162.998 60.1986 160.988 60.9108C158.782 61.6922 171.586 80.1917 172.119 82.5211C164.08 87.2771 155.263 89.9019 141.574 98.2557C127.884 106.61 90.1005 131.076 82.3408 134.627C71.016 139.809 56.793 145.834 53.8878 144.075C50.9826 142.316 43.2895 124.794 43.2895 124.794C43.2895 124.794 48.346 142.372 48.6178 145.488C48.8897 148.603 7.76639 152.859 2.99552 143.597Z" fill="#A3DCCD"/>
<path d="M272.208 -59.5333L271.911 -59.9352L272.208 -59.5333ZM281.095 10.7607L281.426 11.1354L282.288 10.3743L281.144 10.263L281.095 10.7607ZM279.605 -54.2288L280.087 -54.364L279.605 -54.2288ZM245.173 -12.403L244.738 -12.6505L244.603 -12.4129L244.73 -12.1707L245.173 -12.403ZM259.086 -35.8465L258.695 -36.1571L259.086 -35.8465ZM215.815 -46.1096L215.591 -45.6624L215.815 -46.1096ZM225.092 -28.1011L225.517 -28.3631L225.092 -28.1011ZM150.018 0.804539L150.356 1.17315L150.018 0.804539ZM168.003 21.4889L167.69 21.8791C167.898 22.045 168.198 22.0202 168.375 21.8226C168.552 21.6249 168.544 21.3233 168.357 21.1355L168.003 21.4889ZM143.705 6.66058L143.767 7.15672L143.705 6.66058ZM96.344 45.3803L96.6065 45.8058L96.344 45.3803ZM108.78 61.7612L108.514 62.1841L109.149 61.4231L108.78 61.7612ZM90.0276 49.9361L90.2943 49.5131L90.0633 49.3674L89.8159 49.4831L90.0276 49.9361ZM43.1625 76.6812L43.4535 77.0878L43.1625 76.6812ZM53.4889 92.8469L53.28 93.3012L53.8656 92.5182L53.4889 92.8469ZM37.6447 84.081L37.9545 83.6885L37.6447 84.081ZM43.2895 124.794L43.7474 124.593L42.809 124.932L43.2895 124.794ZM82.3408 134.627L82.1327 134.172L82.3408 134.627ZM172.119 82.5211L172.374 82.9515L172.688 82.7655L172.607 82.4095L172.119 82.5211ZM160.988 60.9108L161.155 61.3821L160.988 60.9108ZM180.546 78.1805L180.663 78.6667L180.546 78.1805ZM167.597 67.2723L167.217 67.5981L167.597 67.2723ZM242.939 40.1816L242.594 39.8194L242.939 40.1816ZM257.344 3.46333L257.642 3.06179L257.344 3.46333ZM263.589 -28.3998L263.215 -28.7315L263.589 -28.3998ZM48.1197 145.531C48.1112 145.433 48.1858 145.484 47.9171 145.671C47.6832 145.834 47.3013 146.017 46.7628 146.21C45.6936 146.592 44.1225 146.972 42.1874 147.317C38.3238 148.004 33.0849 148.536 27.6841 148.684C22.2806 148.831 16.7408 148.592 12.2678 147.746C10.0306 147.324 8.08077 146.753 6.55434 146.015C5.02243 145.274 3.96652 144.39 3.44001 143.368L2.55102 143.826C3.21723 145.119 4.49005 146.128 6.11918 146.915C7.7538 147.705 9.79728 148.297 12.0821 148.729C16.653 149.593 22.2717 149.832 27.7113 149.683C33.1538 149.535 38.4429 148.998 42.3625 148.301C44.319 147.953 45.9533 147.562 47.0997 147.151C47.669 146.948 48.1474 146.729 48.4883 146.492C48.7945 146.279 49.1585 145.932 49.116 145.444L48.1197 145.531ZM272.505 -59.1313C273.103 -59.5737 273.726 -59.6655 274.362 -59.5207C275.017 -59.3713 275.702 -58.9645 276.36 -58.3779C277.679 -57.2001 278.751 -55.4198 279.124 -54.0936L280.087 -54.364C279.66 -55.8818 278.481 -57.8249 277.026 -59.124C276.295 -59.7757 275.462 -60.2956 274.584 -60.4957C273.686 -60.7002 272.76 -60.564 271.911 -59.9352L272.505 -59.1313ZM237.22 -14.9055C243.635 -18.2101 252.039 -26.1549 259.478 -35.5358L258.695 -36.1571C251.284 -26.8116 242.986 -19.0008 236.762 -15.7945L237.22 -14.9055ZM259.478 -35.5358C262.66 -39.5486 265.55 -45.2135 267.838 -49.99C268.989 -52.3927 269.98 -54.5549 270.796 -56.2125C271.203 -57.0389 271.559 -57.7243 271.861 -58.2375C272.012 -58.4941 272.145 -58.7002 272.26 -58.856C272.381 -59.0183 272.462 -59.0994 272.505 -59.1313L271.911 -59.9352C271.748 -59.8149 271.596 -59.6398 271.457 -59.4514C271.312 -59.2566 271.159 -59.0176 270.999 -58.7446C270.677 -58.1985 270.308 -57.4861 269.899 -56.6541C269.082 -54.9949 268.075 -52.7978 266.937 -50.422C264.646 -45.6411 261.798 -40.0714 258.695 -36.1571L259.478 -35.5358ZM215.591 -45.6624C215.776 -45.5703 216.005 -45.369 216.277 -45.0152C216.544 -44.6675 216.826 -44.2071 217.126 -43.6424C217.728 -42.512 218.374 -41.023 219.104 -39.3092C220.557 -35.8994 222.325 -31.6429 224.666 -27.8391L225.517 -28.3631C223.224 -32.0907 221.485 -36.2726 220.024 -39.7012C219.297 -41.4066 218.635 -42.9368 218.009 -44.1123C217.696 -44.7006 217.384 -45.2148 217.07 -45.6243C216.76 -46.0276 216.42 -46.366 216.039 -46.5568L215.591 -45.6624ZM224.666 -27.8391C226.971 -24.0918 229.846 -20.8066 232.208 -18.4913C233.389 -17.3334 234.448 -16.4121 235.251 -15.7931C235.65 -15.4849 235.996 -15.244 236.268 -15.086C236.401 -15.0082 236.533 -14.9407 236.655 -14.8974C236.715 -14.8759 236.789 -14.8541 236.87 -14.8453C236.943 -14.8372 237.079 -14.8331 237.22 -14.9055L236.762 -15.7945C236.871 -15.8504 236.962 -15.8412 236.979 -15.8393C237.004 -15.8366 237.01 -15.8322 236.991 -15.8391C236.953 -15.8525 236.882 -15.8856 236.771 -15.9502C236.553 -16.0772 236.245 -16.2889 235.861 -16.585C235.097 -17.1745 234.068 -18.0685 232.908 -19.2054C230.588 -21.4799 227.77 -24.7024 225.517 -28.3631L224.666 -27.8391ZM150.356 1.17315C160.062 -7.72255 176.102 -19.6283 189.922 -29.2213C196.829 -34.0159 203.174 -38.2274 207.886 -41.1906C210.243 -42.6728 212.186 -43.8391 213.584 -44.6093C214.285 -44.9953 214.838 -45.276 215.234 -45.4471C215.434 -45.5334 215.578 -45.5851 215.673 -45.6101C215.696 -45.616 215.713 -45.6198 215.725 -45.622C215.738 -45.6243 215.743 -45.6246 215.741 -45.6245C215.741 -45.6244 215.727 -45.6235 215.705 -45.6266C215.683 -45.6295 215.641 -45.6376 215.591 -45.6624L216.039 -46.5568C215.899 -46.6267 215.76 -46.6274 215.681 -46.6227C215.591 -46.6172 215.501 -46.5989 215.419 -46.5772C215.252 -46.5335 215.055 -46.4592 214.837 -46.365C214.398 -46.175 213.811 -45.8762 213.102 -45.4852C211.679 -44.7013 209.717 -43.5231 207.354 -42.0371C202.626 -39.0637 196.268 -34.8434 189.352 -30.0428C175.526 -20.4456 159.439 -8.50803 149.68 0.435924L150.356 1.17315ZM168.003 21.4889C168.357 21.1355 168.357 21.1355 168.357 21.1353C168.356 21.1352 168.356 21.135 168.356 21.1347C168.355 21.1341 168.355 21.1333 168.353 21.1321C168.351 21.1298 168.348 21.1263 168.343 21.1217C168.334 21.1124 168.32 21.0985 168.302 21.0802C168.265 21.0436 168.211 20.9892 168.14 20.9181C167.999 20.7759 167.792 20.5672 167.529 20.3009C167.002 19.7685 166.251 19.0062 165.354 18.0875C163.561 16.2498 161.185 13.7871 158.853 11.2852C156.519 8.78149 154.237 6.24615 152.628 4.26095C151.821 3.26564 151.196 2.424 150.818 1.80092C150.626 1.48544 150.515 1.25335 150.468 1.10054C150.444 1.02362 150.446 0.99662 150.446 1.0049C150.445 1.02054 150.434 1.1012 150.356 1.17315L149.68 0.435924C149.514 0.587788 149.457 0.783751 149.448 0.947818C149.439 1.10453 149.47 1.25906 149.512 1.39451C149.596 1.66643 149.758 1.98235 149.963 2.31986C150.377 3.00275 151.037 3.88695 151.851 4.89072C153.483 6.9037 155.784 9.45953 158.122 11.967C160.46 14.4765 162.842 16.9452 164.639 18.786C165.537 19.7065 166.29 20.4703 166.817 21.0041C167.081 21.271 167.289 21.4804 167.431 21.6231C167.502 21.6945 167.557 21.7492 167.593 21.7861C167.612 21.8045 167.626 21.8185 167.635 21.8279C167.64 21.8326 167.643 21.8362 167.646 21.8385C167.647 21.8397 167.648 21.8406 167.648 21.8412C167.649 21.8415 167.649 21.8418 167.649 21.8419C167.649 21.8421 167.649 21.8422 168.003 21.4889ZM143.767 7.15672C144.271 7.09362 145.028 7.23176 146.017 7.58825C146.991 7.93905 148.131 8.47859 149.376 9.15283C151.865 10.5007 154.728 12.3617 157.447 14.2504C160.163 16.1375 162.724 18.045 164.607 19.4814C165.549 20.1994 166.32 20.7992 166.856 21.2194C167.124 21.4295 167.333 21.5947 167.474 21.7072C167.545 21.7634 167.599 21.8065 167.636 21.8355C167.654 21.85 167.668 21.8609 167.677 21.8682C167.681 21.8719 167.685 21.8746 167.687 21.8764C167.688 21.8773 167.689 21.878 167.69 21.8785C167.69 21.8787 167.69 21.8788 167.69 21.8789C167.69 21.879 167.69 21.8791 168.003 21.4889C168.316 21.0987 168.316 21.0986 168.315 21.0984C168.315 21.0983 168.315 21.0981 168.315 21.0979C168.314 21.0974 168.313 21.0966 168.312 21.0957C168.309 21.0937 168.306 21.0909 168.301 21.0871C168.292 21.0795 168.278 21.0683 168.259 21.0536C168.222 21.0241 168.167 20.9805 168.096 20.9237C167.953 20.8101 167.742 20.6439 167.473 20.4326C166.934 20.01 166.159 19.4074 165.214 18.6863C163.324 17.2444 160.75 15.3274 158.017 13.4291C155.287 11.5324 152.389 9.6472 149.852 8.27349C148.585 7.58695 147.396 7.02188 146.356 6.64742C145.333 6.27866 144.391 6.0709 143.643 6.16445L143.767 7.15672ZM96.6065 45.8058C106.256 39.8548 117.762 30.1941 127.02 22.0184C131.651 17.9282 135.728 14.2012 138.732 11.4914C140.235 10.1348 141.467 9.03587 142.367 8.27109C142.817 7.88805 143.178 7.59459 143.444 7.39605C143.578 7.29629 143.681 7.22653 143.754 7.18259C143.85 7.12453 143.838 7.14779 143.767 7.15672L143.643 6.16445C143.481 6.18468 143.329 6.27103 143.239 6.32529C143.125 6.39367 142.993 6.48548 142.847 6.59402C142.554 6.81206 142.174 7.12208 141.719 7.5092C140.807 8.28477 139.565 9.39299 138.062 10.7489C135.053 13.464 130.984 17.1833 126.358 21.2689C117.1 29.4447 105.65 39.0533 96.0816 44.9547L96.6065 45.8058ZM108.78 61.7612C109.149 61.4231 109.149 61.4231 109.149 61.423C109.149 61.4229 109.148 61.4227 109.148 61.4225C109.148 61.422 109.147 61.4214 109.146 61.4204C109.145 61.4186 109.142 61.4159 109.139 61.4122C109.132 61.4049 109.122 61.394 109.109 61.3796C109.083 61.3507 109.043 61.3077 108.992 61.2515C108.89 61.1392 108.739 60.9741 108.549 60.7636C108.167 60.3425 107.624 59.7397 106.978 59.013C105.684 57.5593 103.978 55.6116 102.325 53.6333C100.669 51.6521 99.0746 49.6512 98.0003 48.0877C97.4602 47.3019 97.0678 46.6498 96.8607 46.1769C96.755 45.9358 96.7154 45.7802 96.7093 45.6966C96.7034 45.614 96.7317 45.7286 96.6065 45.8058L96.0816 44.9547C95.7492 45.1597 95.6935 45.514 95.712 45.7687C95.7303 46.0223 95.8235 46.3016 95.9447 46.5782C96.1912 47.1409 96.6279 47.8564 97.1761 48.6541C98.2782 50.2579 99.897 52.2883 101.557 54.2746C103.22 56.2637 104.933 58.2197 106.231 59.6777C106.879 60.4069 107.425 61.012 107.807 61.4348C107.999 61.6463 108.15 61.8122 108.253 61.9253C108.305 61.9819 108.344 62.0253 108.371 62.0546C108.385 62.0692 108.395 62.0803 108.402 62.0878C108.405 62.0915 108.408 62.0944 108.409 62.0963C108.41 62.0972 108.411 62.098 108.411 62.0984C108.412 62.0987 108.412 62.0989 108.412 62.099C108.412 62.0991 108.412 62.0992 108.78 61.7612ZM89.761 50.359L108.514 62.1841L109.047 61.3382L90.2943 49.5131L89.761 50.359ZM43.4535 77.0878C53.1651 70.1374 64.859 63.4631 74.1336 58.523C78.7691 56.0538 82.7967 54.0198 85.6652 52.6032C87.0993 51.8949 88.2436 51.341 89.0289 50.9644C89.4216 50.7761 89.7246 50.6321 89.9292 50.5352C90.0315 50.4868 90.1092 50.4502 90.1613 50.4257C90.1873 50.4134 90.207 50.4042 90.22 50.3981C90.2266 50.395 90.2314 50.3927 90.2347 50.3912C90.2363 50.3905 90.2375 50.3899 90.2383 50.3895C90.2387 50.3893 90.239 50.3892 90.2392 50.3891C90.2394 50.389 90.2394 50.389 90.0276 49.9361C89.8159 49.4831 89.8157 49.4832 89.8155 49.4833C89.8153 49.4834 89.8149 49.4836 89.8145 49.4838C89.8136 49.4842 89.8123 49.4848 89.8106 49.4856C89.8072 49.4872 89.8021 49.4896 89.7954 49.4927C89.782 49.499 89.762 49.5084 89.7357 49.5208C89.6829 49.5456 89.6044 49.5826 89.5014 49.6314C89.2953 49.7289 88.9908 49.8736 88.5965 50.0627C87.808 50.4409 86.6603 50.9964 85.2224 51.7066C82.3467 53.1268 78.3097 55.1655 73.6634 57.6404C64.3744 62.5882 52.6358 69.2865 42.8715 76.2746L43.4535 77.0878ZM53.4889 92.8469C53.8656 92.5182 53.8656 92.5181 53.8655 92.5181C53.8654 92.518 53.8653 92.5178 53.8651 92.5176C53.8648 92.5172 53.8642 92.5166 53.8635 92.5157C53.862 92.5141 53.8598 92.5115 53.8568 92.5081C53.8509 92.5013 53.842 92.491 53.8302 92.4774C53.8066 92.4502 53.7715 92.4098 53.7257 92.3568C53.6342 92.2508 53.5 92.095 53.3299 91.8958C52.9898 91.4976 52.5062 90.9265 51.9329 90.2358C50.786 88.8539 49.2828 86.9962 47.8534 85.0886C46.4206 83.1765 45.0754 81.232 44.2346 79.6723C43.8117 78.8878 43.5346 78.2332 43.4264 77.7456C43.3091 77.217 43.4306 77.1042 43.4535 77.0878L42.8715 76.2746C42.3128 76.6745 42.3207 77.3791 42.4501 77.9622C42.5886 78.5863 42.9182 79.3378 43.3544 80.1468C44.2317 81.7743 45.6135 83.7671 47.0531 85.6883C48.4961 87.6139 50.0107 89.4855 51.1634 90.8745C51.7401 91.5693 52.2268 92.144 52.5695 92.5453C52.7409 92.7459 52.8763 92.9032 52.969 93.0105C53.0153 93.0642 53.051 93.1053 53.0751 93.1331C53.0872 93.147 53.0964 93.1576 53.1026 93.1647C53.1057 93.1682 53.108 93.1709 53.1096 93.1728C53.1104 93.1737 53.111 93.1744 53.1114 93.1749C53.1117 93.1751 53.1118 93.1753 53.1119 93.1754C53.112 93.1756 53.1121 93.1756 53.4889 92.8469ZM37.3349 84.4734C39.6241 86.2803 43.6266 88.4917 47.0226 90.2382C48.7274 91.1149 50.2911 91.8804 51.4284 92.4265C51.9972 92.6997 52.4596 92.9181 52.78 93.0684C52.9402 93.1435 53.065 93.2016 53.1498 93.2409C53.1922 93.2606 53.2246 93.2756 53.2465 93.2857C53.2574 93.2908 53.2657 93.2946 53.2713 93.2972C53.2741 93.2985 53.2763 93.2995 53.2777 93.3001C53.2784 93.3005 53.279 93.3007 53.2793 93.3009C53.2795 93.301 53.2797 93.301 53.2798 93.3011C53.2799 93.3011 53.28 93.3012 53.4889 92.8469C53.6978 92.3926 53.6977 92.3926 53.6977 92.3926C53.6976 92.3926 53.6975 92.3925 53.6973 92.3924C53.697 92.3923 53.6965 92.3921 53.6959 92.3918C53.6946 92.3912 53.6926 92.3902 53.6899 92.389C53.6846 92.3865 53.6765 92.3828 53.6658 92.3779C53.6445 92.368 53.6126 92.3533 53.5708 92.3339C53.4871 92.295 53.3635 92.2375 53.2046 92.163C52.8866 92.0139 52.427 91.7968 51.8613 91.5251C50.7298 90.9817 49.1746 90.2204 47.4799 89.3489C44.0768 87.5988 40.1573 85.4272 37.9545 83.6885L37.3349 84.4734ZM3.44001 143.368C1.15029 138.923 1.87062 133.158 3.62671 127.72C5.37539 122.305 8.10886 117.342 9.68112 114.582L8.81222 114.087C7.23487 116.856 4.45732 121.894 2.6751 127.412C0.900307 132.908 0.0698587 139.009 2.55102 143.826L3.44001 143.368ZM9.68112 114.582C10.4423 113.246 12.4758 110.616 15.1613 107.411C17.8351 104.22 21.1246 100.493 24.3686 96.9799C27.6137 93.4653 30.807 90.1706 33.289 87.8396C34.5321 86.6721 35.5851 85.7576 36.3712 85.1788C36.7674 84.887 37.0744 84.6967 37.2913 84.5987C37.401 84.5491 37.4615 84.5354 37.4828 84.5329C37.5055 84.5303 37.4261 84.5454 37.3349 84.4734L37.9545 83.6885C37.759 83.5342 37.5326 83.5205 37.3679 83.5395C37.202 83.5587 37.035 83.6171 36.8796 83.6873C36.5664 83.8289 36.1926 84.0684 35.7782 84.3735C34.9432 84.9884 33.8557 85.9355 32.6044 87.1107C30.0975 89.465 26.8861 92.7793 23.6339 96.3016C20.3806 99.825 17.0803 103.563 14.3948 106.769C11.721 109.96 9.62586 112.659 8.81222 114.087L9.68112 114.582ZM43.2895 124.794C42.809 124.932 42.809 124.932 42.8091 124.933C42.8091 124.933 42.8092 124.933 42.8092 124.933C42.8094 124.934 42.8096 124.934 42.8099 124.935C42.8105 124.938 42.8114 124.941 42.8127 124.945C42.8151 124.953 42.8187 124.966 42.8235 124.983C42.833 125.016 42.8472 125.065 42.8657 125.13C42.9028 125.259 42.9572 125.449 43.0265 125.693C43.1652 126.179 43.3636 126.877 43.6026 127.725C44.0806 129.421 44.7207 131.714 45.3692 134.104C46.0178 136.494 46.6742 138.979 47.185 141.059C47.7002 143.157 48.0558 144.799 48.1197 145.531L49.116 145.444C49.0439 144.619 48.6655 142.895 48.1562 140.821C47.6425 138.729 46.9837 136.235 46.3343 133.842C45.6847 131.448 45.0437 129.151 44.5651 127.454C44.3258 126.605 44.1271 125.906 43.9882 125.418C43.9187 125.175 43.8642 124.984 43.8271 124.855C43.8085 124.79 43.7942 124.74 43.7846 124.707C43.7798 124.69 43.7762 124.677 43.7738 124.669C43.7725 124.665 43.7716 124.661 43.771 124.659C43.7707 124.658 43.7705 124.657 43.7703 124.657C43.7702 124.656 43.7702 124.656 43.7701 124.656C43.7701 124.656 43.7701 124.656 43.2895 124.794ZM54.1468 143.647C53.8717 143.481 53.4822 143.083 52.9975 142.44C52.5242 141.813 51.9957 141.001 51.4354 140.064C50.3154 138.19 49.088 135.848 47.947 133.553C46.8068 131.258 45.7567 129.018 44.9914 127.351C44.6088 126.517 44.2976 125.828 44.0821 125.346C43.9744 125.106 43.8906 124.917 43.8338 124.789C43.8054 124.725 43.7837 124.676 43.7692 124.643C43.7619 124.626 43.7564 124.614 43.7528 124.605C43.751 124.601 43.7496 124.598 43.7487 124.596C43.7482 124.595 43.7479 124.594 43.7477 124.594C43.7476 124.594 43.7475 124.593 43.7474 124.593C43.7474 124.593 43.7474 124.593 43.2895 124.794C42.8317 124.995 42.8318 124.995 42.8318 124.995C42.8319 124.996 42.832 124.996 42.8321 124.996C42.8324 124.997 42.8327 124.997 42.8332 124.999C42.8342 125.001 42.8356 125.004 42.8375 125.008C42.8412 125.017 42.8468 125.029 42.8542 125.046C42.869 125.08 42.8909 125.129 42.9195 125.194C42.9768 125.323 43.0611 125.513 43.1694 125.755C43.386 126.239 43.6985 126.931 44.0826 127.768C44.8505 129.441 45.9052 131.691 47.0515 133.998C48.1969 136.302 49.4375 138.671 50.577 140.577C51.1465 141.53 51.6956 142.375 52.1992 143.043C52.6912 143.695 53.1776 144.23 53.6289 144.503L54.1468 143.647ZM82.1327 134.172C76.4725 136.763 70.1009 139.557 64.7865 141.484C62.1275 142.448 59.7494 143.189 57.865 143.58C56.9222 143.776 56.1192 143.881 55.4753 143.887C54.8181 143.893 54.3908 143.795 54.1468 143.647L53.6289 144.503C54.1112 144.795 54.7638 144.893 55.4847 144.887C56.2189 144.88 57.0922 144.762 58.0683 144.559C60.0217 144.154 62.4519 143.394 65.1274 142.424C70.482 140.483 76.8843 137.674 82.5488 135.082L82.1327 134.172ZM160.821 60.4395C160.453 60.5697 160.294 60.8872 160.249 61.1814C160.207 61.4558 160.249 61.7704 160.325 62.0846C160.478 62.7235 160.818 63.5585 161.27 64.5051C162.18 66.4086 163.601 68.8848 165.097 71.3917C165.846 72.6472 166.617 73.9145 167.354 75.1259C168.092 76.338 168.797 77.4934 169.416 78.5284C170.036 79.5642 170.566 80.4737 170.958 81.1945C171.154 81.5551 171.313 81.8635 171.429 82.1139C171.549 82.3726 171.611 82.5415 171.632 82.6327L172.607 82.4095C172.561 82.2096 172.461 81.9609 172.336 81.6924C172.207 81.4155 172.038 81.0868 171.837 80.7171C171.435 79.9773 170.895 79.0533 170.274 78.015C169.652 76.9759 168.945 75.8165 168.208 74.6059C167.471 73.3944 166.703 72.1306 165.956 70.8793C164.46 68.3725 163.06 65.9316 162.173 64.074C161.726 63.1399 161.424 62.3833 161.297 61.8518C161.232 61.5808 161.225 61.4155 161.238 61.3319C161.247 61.2682 161.246 61.3496 161.155 61.3821L160.821 60.4395ZM180.429 77.6944C179.844 77.8352 179.079 77.6575 178.121 77.1133C177.176 76.5759 176.122 75.7264 174.997 74.6649C172.748 72.5422 170.302 69.6541 167.976 66.9466L167.217 67.5981C169.528 70.2879 172.015 73.2247 174.311 75.3921C175.459 76.4757 176.58 77.3876 177.627 77.9827C178.662 78.5709 179.707 78.8966 180.663 78.6667L180.429 77.6944ZM167.976 66.9466C167.365 66.2352 166.775 65.4434 166.195 64.6544C165.619 63.8716 165.05 63.0862 164.494 62.4146C163.942 61.7472 163.373 61.1539 162.789 60.7754C162.195 60.3913 161.522 60.191 160.821 60.4395L161.155 61.3821C161.458 61.2745 161.801 61.3277 162.245 61.6149C162.697 61.9077 163.187 62.4037 163.723 63.052C164.256 63.6961 164.805 64.4527 165.389 65.2468C165.969 66.0346 166.579 66.8546 167.217 67.5981L167.976 66.9466ZM242.594 39.8194C240.399 41.9092 235.558 45.2908 229.452 49.2162C223.361 53.1319 216.051 57.5631 208.95 61.7465C201.849 65.9297 194.96 69.8631 189.711 72.7828C187.086 74.2428 184.874 75.4484 183.251 76.3046C182.439 76.7329 181.777 77.0723 181.287 77.3119C181.041 77.4319 180.842 77.5252 180.69 77.5916C180.614 77.6248 180.553 77.65 180.506 77.668C180.482 77.6769 180.464 77.6835 180.45 77.6881C180.435 77.6929 180.429 77.6945 180.429 77.6944L180.663 78.6667C180.779 78.6387 180.932 78.5773 181.091 78.5078C181.261 78.4334 181.474 78.3334 181.726 78.2104C182.23 77.9642 182.902 77.6194 183.717 77.1891C185.349 76.328 187.569 75.1185 190.197 73.6567C195.453 70.7328 202.35 66.7953 209.457 62.6081C216.565 58.4213 223.887 53.9828 229.993 50.0574C236.084 46.1415 241.007 42.7103 243.283 40.5437L242.594 39.8194ZM245.173 -12.403C244.73 -12.1707 244.73 -12.1706 244.73 -12.1704C244.73 -12.1703 244.731 -12.1701 244.731 -12.1699C244.731 -12.1695 244.731 -12.1689 244.732 -12.1682C244.732 -12.1666 244.734 -12.1645 244.735 -12.1616C244.738 -12.1559 244.742 -12.1475 244.748 -12.1365C244.76 -12.1145 244.777 -12.0822 244.8 -12.0399C244.845 -11.9554 244.912 -11.8314 244.999 -11.6723C245.174 -11.3541 245.43 -10.8953 245.757 -10.3304C246.41 -9.20094 247.347 -7.6461 248.482 -5.94384C250.743 -2.55331 253.825 1.47522 257.046 3.86489L257.642 3.06179C254.568 0.781047 251.565 -3.12362 249.314 -6.49867C248.193 -8.1792 247.268 -9.71527 246.622 -10.831C246.3 -11.3887 246.047 -11.841 245.876 -12.1534C245.79 -12.3095 245.725 -12.4306 245.681 -12.5124C245.659 -12.5533 245.643 -12.5844 245.632 -12.605C245.626 -12.6154 245.622 -12.6231 245.619 -12.6282C245.618 -12.6307 245.617 -12.6326 245.617 -12.6338C245.616 -12.6344 245.616 -12.6349 245.616 -12.6351C245.616 -12.6353 245.616 -12.6353 245.616 -12.6354C245.616 -12.6354 245.616 -12.6354 245.173 -12.403ZM257.046 3.86489C261.005 6.8016 267.032 8.64334 272.012 9.75227C274.512 10.3091 276.769 10.6853 278.4 10.9224C279.216 11.0409 279.876 11.1248 280.333 11.179C280.561 11.2062 280.739 11.2259 280.86 11.2389C280.92 11.2454 280.967 11.2502 280.998 11.2535C281.014 11.2551 281.026 11.2563 281.034 11.2571C281.038 11.2575 281.041 11.2578 281.043 11.258C281.044 11.2581 281.045 11.2582 281.046 11.2582C281.046 11.2583 281.046 11.2583 281.046 11.2583C281.047 11.2583 281.047 11.2583 281.095 10.7607C281.144 10.263 281.144 10.2631 281.144 10.263C281.144 10.263 281.143 10.263 281.143 10.263C281.143 10.263 281.142 10.2629 281.141 10.2628C281.14 10.2627 281.137 10.2624 281.133 10.262C281.126 10.2613 281.115 10.2602 281.1 10.2587C281.07 10.2556 281.026 10.251 280.967 10.2447C280.849 10.232 280.676 10.2127 280.451 10.186C280.002 10.1327 279.35 10.0499 278.544 9.93275C276.931 9.69833 274.7 9.3263 272.229 8.77618C267.268 7.67124 261.42 5.86429 257.642 3.06179L257.046 3.86489ZM226.705 13.503C226.599 13.5201 226.484 13.5643 226.384 13.6522C226.284 13.7397 226.227 13.8463 226.196 13.9452C226.14 14.1241 226.164 14.3036 226.191 14.4279C226.247 14.6912 226.389 15.0181 226.57 15.3725C226.939 16.0972 227.561 17.0993 228.338 18.2758C229.897 20.6342 232.13 23.7643 234.362 26.919C236.597 30.0802 238.832 33.2671 240.408 35.7572C241.197 37.0046 241.81 38.0605 242.175 38.843C242.359 39.2375 242.468 39.5367 242.511 39.7429C242.533 39.8462 242.533 39.9006 242.531 39.9192C242.529 39.9356 242.532 39.8788 242.594 39.8194L243.283 40.5437C243.446 40.3891 243.507 40.1926 243.525 40.0275C243.543 39.8645 243.523 39.6956 243.49 39.5368C243.423 39.2186 243.276 38.838 243.081 38.42C242.688 37.5776 242.047 36.4778 241.253 35.2225C239.661 32.7069 237.411 29.4988 235.178 26.3415C232.94 23.1777 230.72 20.0658 229.173 17.7244C228.397 16.5509 227.803 15.5888 227.46 14.9178C227.285 14.5745 227.196 14.3458 227.169 14.2185C227.153 14.1476 227.172 14.1731 227.151 14.2421C227.137 14.2861 227.106 14.3489 227.044 14.4039C226.981 14.4592 226.913 14.4823 226.865 14.4901L226.705 13.503ZM281.095 10.7607C280.764 10.386 280.764 10.3861 280.764 10.3863C280.764 10.3864 280.763 10.3867 280.763 10.387C280.762 10.3876 280.761 10.3886 280.76 10.3899C280.757 10.3925 280.752 10.3965 280.746 10.4017C280.735 10.4121 280.717 10.4277 280.693 10.4484C280.647 10.4896 280.577 10.5509 280.486 10.631C280.304 10.7911 280.036 11.0262 279.693 11.3261C279.008 11.9257 278.022 12.7841 276.822 13.8187C274.424 15.888 271.171 18.6611 267.754 21.4779C264.336 24.2956 260.76 27.1528 257.711 29.392C256.187 30.5119 254.8 31.473 253.635 32.196C252.456 32.928 251.548 33.3875 250.967 33.5431L251.226 34.5091C251.963 34.3116 252.981 33.7792 254.162 33.0457C255.358 32.3033 256.768 31.3254 258.303 30.1979C261.374 27.9425 264.967 25.0716 268.39 22.2495C271.814 19.4265 275.073 16.6482 277.476 14.5759C278.677 13.5397 279.664 12.6798 280.352 12.0788C280.695 11.7784 280.964 11.5426 281.146 11.3819C281.238 11.3016 281.308 11.24 281.355 11.1985C281.378 11.1777 281.396 11.162 281.408 11.1514C281.414 11.1461 281.419 11.1421 281.422 11.1394C281.423 11.1381 281.424 11.1371 281.425 11.1364C281.426 11.1361 281.426 11.1358 281.426 11.1356C281.426 11.1355 281.426 11.1354 281.095 10.7607ZM250.967 33.5431C250.484 33.6726 249.776 33.551 248.827 33.106C247.896 32.6694 246.817 31.9617 245.639 31.0542C243.285 29.2407 240.603 26.6847 238.011 24.0763C236.717 22.7739 235.449 21.4623 234.258 20.2279C233.069 18.9947 231.956 17.8368 230.976 16.8468C229.998 15.8587 229.142 15.0269 228.468 14.4495C228.133 14.162 227.829 13.9255 227.568 13.7633C227.439 13.6824 227.306 13.6114 227.176 13.5631C227.055 13.5178 226.886 13.4736 226.705 13.503L226.865 14.4901C226.799 14.5008 226.776 14.4809 226.828 14.5003C226.871 14.5166 226.941 14.5505 227.04 14.612C227.237 14.7347 227.496 14.9333 227.818 15.2088C228.458 15.7576 229.289 16.5642 230.265 17.5503C231.24 18.5344 232.347 19.6862 233.539 20.922C234.729 22.1565 236.002 23.4729 237.302 24.7812C239.898 27.3942 242.619 29.99 245.029 31.8464C246.233 32.7738 247.377 33.5306 248.402 34.0114C249.41 34.484 250.392 34.7327 251.226 34.5091L250.967 33.5431ZM279.124 -54.0936C279.124 -54.0941 279.136 -54.03 279.111 -53.8592C279.088 -53.7013 279.04 -53.4935 278.962 -53.2344C278.806 -52.7171 278.544 -52.037 278.181 -51.2179C277.457 -49.5821 276.344 -47.4305 274.917 -44.9878C272.061 -40.1025 267.96 -34.0827 263.215 -28.7315L263.963 -28.068C268.761 -33.4779 272.898 -39.5537 275.78 -44.4832C277.221 -46.9479 278.352 -49.1335 279.096 -50.8128C279.467 -51.6512 279.747 -52.3732 279.919 -52.9459C280.005 -53.2318 280.068 -53.4909 280.101 -53.7149C280.131 -53.926 280.144 -54.1588 280.087 -54.364L279.124 -54.0936ZM263.215 -28.7315C259.735 -24.8075 255.498 -21.4191 251.943 -18.7062C250.173 -17.3559 248.559 -16.1628 247.314 -15.1679C246.689 -14.6692 246.147 -14.2118 245.715 -13.8007C245.29 -13.3959 244.943 -13.0092 244.738 -12.6505L245.607 -12.1555C245.737 -12.3831 245.997 -12.6883 246.404 -13.0765C246.805 -13.4583 247.322 -13.8949 247.938 -14.3866C249.172 -15.3727 250.76 -16.5461 252.549 -17.9112C256.111 -20.6292 260.414 -24.0667 263.963 -28.068L263.215 -28.7315ZM171.865 82.0908C167.872 84.4527 163.69 86.2839 158.754 88.5861C153.826 90.8848 148.18 93.6384 141.313 97.8289L141.834 98.6825C148.656 94.5193 154.265 91.7835 159.177 89.4924C164.082 87.2047 168.327 85.3455 172.374 82.9515L171.865 82.0908ZM141.313 97.8289C134.465 102.008 121.588 110.218 109.468 117.819C97.3221 125.435 85.9742 132.414 82.1327 134.172L82.5488 135.082C86.467 133.289 97.8908 126.259 109.999 118.666C122.133 111.057 134.993 102.857 141.834 98.6825L141.313 97.8289ZM14.9265 136.687C27.7769 124.225 35.4729 119.87 44.3346 113.746L43.766 112.923C34.9361 119.026 27.155 123.435 14.2303 135.969L14.9265 136.687ZM44.3346 113.746C48.7364 110.703 68.0914 99.5158 92.3941 85.3604C116.678 71.2159 145.867 54.1277 169.894 39.3054L169.369 38.4543C145.354 53.2691 116.176 70.3513 91.8908 84.4963C67.625 98.6302 48.2101 109.851 43.766 112.923L44.3346 113.746ZM169.894 39.3054C193.887 24.5035 205.774 17.7258 213.215 12.2204C220.71 6.6756 223.739 2.38832 230.048 -7.37964L229.208 -7.92224C222.913 1.82415 219.963 5.98373 212.621 11.4165C205.225 16.8886 193.416 23.6192 169.369 38.4543L169.894 39.3054Z" fill="white"/>
</svg>
