<svg width="61" height="61" viewBox="0 0 61 61" fill="none" xmlns="http://www.w3.org/2000/svg">
<g clip-path="url(#clip0_214_337)">
<path d="M30.6486 61.2C47.5754 61.2 61.2973 47.4999 61.2973 30.6C61.2973 13.7001 47.5754 0 30.6486 0C13.7219 0 0 13.7001 0 30.6C0 47.4999 13.7219 61.2 30.6486 61.2Z" fill="#807E89"/>
<path d="M30.6486 33.8786C36.6939 33.8786 41.5945 28.9857 41.5945 22.9501C41.5945 16.9144 36.6939 12.0215 30.6486 12.0215C24.6033 12.0215 19.7026 16.9144 19.7026 22.9501C19.7026 28.9857 24.6033 33.8786 30.6486 33.8786Z" fill="white"/>
<mask id="mask0_214_337" style="mask-type:luminance" maskUnits="userSpaceOnUse" x="3" y="3" width="56" height="55">
<path d="M30.6486 57.9215C45.7618 57.9215 58.0134 45.6893 58.0134 30.6001C58.0134 15.5108 45.7618 3.27863 30.6486 3.27863C15.5354 3.27863 3.28369 15.5108 3.28369 30.6001C3.28369 45.6893 15.5354 57.9215 30.6486 57.9215Z" fill="white"/>
</mask>
<g mask="url(#mask0_214_337)">
<path d="M30.6489 78.6857C42.1349 78.6857 51.4462 69.3893 51.4462 57.9215C51.4462 46.4537 42.1349 37.1572 30.6489 37.1572C19.1628 37.1572 9.85156 46.4537 9.85156 57.9215C9.85156 69.3893 19.1628 78.6857 30.6489 78.6857Z" fill="white"/>
</g>
</g>
<defs>
<clipPath id="clip0_214_337">
<rect width="61" height="61" fill="white"/>
</clipPath>
</defs>
</svg>
