<svg width="84" height="65" viewBox="0 0 84 65" fill="none" xmlns="http://www.w3.org/2000/svg">
<path d="M42 4.5C44.3375 4.5 46.25 6.525 46.25 9C46.25 11.475 44.3375 13.5 42 13.5C39.6625 13.5 37.75 11.475 37.75 9C37.75 6.525 39.6625 4.5 42 4.5ZM42 27C47.7375 27 54.325 29.9025 54.75 31.5H29.25C29.7387 29.88 36.2837 27 42 27ZM42 0C37.3037 0 33.5 4.0275 33.5 9C33.5 13.9725 37.3037 18 42 18C46.6962 18 50.5 13.9725 50.5 9C50.5 4.0275 46.6962 0 42 0ZM42 22.5C36.3262 22.5 25 25.515 25 31.5V36H59V31.5C59 25.515 47.6737 22.5 42 22.5Z" fill="#4A4950"/>
<path d="M12.4874 47.228C12.5114 47.156 12.5534 47.102 12.6134 47.066C12.6734 47.03 12.7454 47 12.8294 46.976C12.9134 46.964 13.0094 46.958 13.1174 46.958C13.2374 46.958 13.3694 46.946 13.5134 46.922C13.7294 46.91 13.9874 46.892 14.2874 46.868C14.5874 46.844 14.9054 46.82 15.2414 46.796C15.5894 46.76 15.9434 46.724 16.3034 46.688C16.6634 46.652 17.0114 46.604 17.3474 46.544C17.4674 46.544 17.5934 46.55 17.7254 46.562C17.8694 46.574 18.0014 46.616 18.1214 46.688C18.2654 46.772 18.3914 46.892 18.4994 47.048C18.6074 47.204 18.6434 47.354 18.6074 47.498C18.4754 47.978 18.2954 48.446 18.0674 48.902C17.8514 49.346 17.6054 49.766 17.3294 50.162C17.7854 50.522 18.2234 50.9 18.6434 51.296C19.0754 51.692 19.4474 52.07 19.7594 52.43C19.8314 52.538 19.8374 52.676 19.7774 52.844C19.7174 53.012 19.6334 53.138 19.5254 53.222C19.3814 53.33 19.2314 53.384 19.0754 53.384C18.9194 53.384 18.7934 53.33 18.6974 53.222C18.3134 52.826 17.9294 52.484 17.5454 52.196C17.1614 51.896 16.7774 51.608 16.3934 51.332C15.9614 51.812 15.5174 52.232 15.0614 52.592C14.6054 52.952 14.1914 53.222 13.8194 53.402C13.6754 53.474 13.5254 53.528 13.3694 53.564C13.2254 53.6 13.0634 53.582 12.8834 53.51C12.7034 53.462 12.5894 53.354 12.5414 53.186C12.5054 53.006 12.5894 52.844 12.7934 52.7C13.2014 52.412 13.6154 52.088 14.0354 51.728C14.4674 51.356 14.8694 50.96 15.2414 50.54C15.6134 50.12 15.9494 49.682 16.2494 49.226C16.5494 48.77 16.7894 48.302 16.9694 47.822C16.6814 47.858 16.4054 47.894 16.1414 47.93C15.8774 47.966 15.6194 47.996 15.3674 48.02C15.1034 48.056 14.8394 48.092 14.5754 48.128C14.3234 48.152 14.0714 48.176 13.8194 48.2C13.6274 48.236 13.4414 48.23 13.2614 48.182C13.0814 48.134 12.9254 48.062 12.7934 47.966C12.6614 47.87 12.5654 47.756 12.5054 47.624C12.4454 47.492 12.4394 47.36 12.4874 47.228ZM21.5594 44.906C21.7274 44.762 21.9254 44.726 22.1534 44.798C22.3814 44.858 22.5614 44.96 22.6934 45.104C22.9334 45.38 23.1254 45.692 23.2694 46.04C23.4254 46.376 23.5034 46.724 23.5034 47.084L23.3594 52.376C23.3474 52.556 23.3294 52.754 23.3054 52.97C23.2814 53.186 23.2454 53.396 23.1974 53.6C23.1374 53.792 23.0534 53.96 22.9454 54.104C22.8374 54.236 22.7054 54.308 22.5494 54.32C22.4174 54.344 22.3094 54.296 22.2254 54.176C22.1414 54.056 22.0754 53.912 22.0274 53.744C21.9674 53.576 21.9254 53.402 21.9014 53.222C21.8894 53.042 21.8834 52.886 21.8834 52.754L21.9194 50.108L20.1734 50.324C19.7294 50.396 19.3934 50.354 19.1654 50.198C18.9494 50.042 18.8594 49.82 18.8954 49.532C18.9074 49.364 18.9734 49.238 19.0934 49.154C19.2134 49.058 19.3394 49.004 19.4714 48.992C19.5554 48.992 19.6394 48.992 19.7234 48.992C19.8194 48.992 19.9154 48.992 20.0114 48.992C20.0954 48.992 20.1794 48.992 20.2634 48.992C20.3594 48.992 20.4554 48.986 20.5514 48.974C20.7914 48.962 21.0254 48.95 21.2534 48.938C21.4814 48.914 21.7094 48.884 21.9374 48.848L21.9554 47.606C21.9554 47.438 21.9374 47.234 21.9014 46.994C21.8774 46.742 21.8234 46.526 21.7394 46.346C21.6314 46.142 21.5234 45.896 21.4154 45.608C21.3194 45.32 21.3674 45.086 21.5594 44.906ZM15.9254 57.488C15.9254 57.008 16.0214 56.576 16.2134 56.192C16.4054 55.808 16.6694 55.478 17.0054 55.202C17.3294 54.926 17.7134 54.716 18.1574 54.572C18.6014 54.428 19.0694 54.356 19.5614 54.356C20.0414 54.356 20.5034 54.428 20.9474 54.572C21.3914 54.716 21.7754 54.926 22.0994 55.202C22.4354 55.466 22.6994 55.796 22.8914 56.192C23.0954 56.576 23.1974 57.008 23.1974 57.488C23.1974 57.98 23.0954 58.418 22.8914 58.802C22.6994 59.186 22.4354 59.516 22.0994 59.792C21.7754 60.056 21.3914 60.26 20.9474 60.404C20.5034 60.548 20.0414 60.62 19.5614 60.62C19.0694 60.632 18.6014 60.566 18.1574 60.422C17.7134 60.278 17.3294 60.068 17.0054 59.792C16.6694 59.516 16.4054 59.186 16.2134 58.802C16.0214 58.418 15.9254 57.98 15.9254 57.488ZM17.4014 57.488C17.4014 57.968 17.5874 58.394 17.9594 58.766C18.3434 59.138 18.8774 59.318 19.5614 59.306C20.2334 59.306 20.7614 59.126 21.1454 58.766C21.5294 58.394 21.7214 57.968 21.7214 57.488C21.7214 57.008 21.5294 56.588 21.1454 56.228C20.7614 55.856 20.2334 55.67 19.5614 55.67C18.8774 55.67 18.3434 55.85 17.9594 56.21C17.5874 56.57 17.4014 56.996 17.4014 57.488ZM28.7457 47.084C29.0697 46.976 29.3817 47.09 29.6817 47.426C29.9817 47.75 30.1617 48.284 30.2217 49.028C30.2217 49.076 30.2217 49.124 30.2217 49.172C30.2217 49.208 30.2217 49.244 30.2217 49.28C30.2217 49.328 30.2217 49.376 30.2217 49.424C30.2337 49.46 30.2397 49.496 30.2397 49.532C30.6117 49.52 30.9897 49.508 31.3737 49.496C31.7577 49.484 32.1417 49.472 32.5257 49.46C32.8977 49.448 33.2757 49.436 33.6597 49.424C34.0437 49.4 34.4277 49.376 34.8117 49.352C34.8117 48.956 34.7997 48.578 34.7757 48.218C34.7517 47.858 34.7097 47.552 34.6497 47.3C34.6137 47.168 34.6617 47.036 34.7937 46.904C34.9377 46.76 35.1057 46.688 35.2977 46.688C35.5857 46.688 35.7897 46.742 35.9097 46.85C36.0417 46.958 36.1257 47.096 36.1617 47.264C36.1857 47.54 36.2037 47.9 36.2157 48.344C36.2277 48.788 36.2337 49.262 36.2337 49.766C36.2217 50.27 36.2037 50.786 36.1797 51.314C36.1677 51.83 36.1497 52.304 36.1257 52.736C36.0897 53.072 36.0057 53.312 35.8737 53.456C35.7417 53.6 35.4717 53.684 35.0637 53.708C34.7757 53.732 34.4877 53.756 34.1997 53.78C33.9117 53.792 33.6237 53.798 33.3357 53.798L33.2817 56.21C34.0737 56.186 34.8657 56.162 35.6577 56.138C36.4497 56.102 37.2417 56.066 38.0337 56.03C38.0937 56.03 38.1597 56.03 38.2317 56.03C38.3037 56.018 38.3757 56.012 38.4477 56.012C38.5197 56 38.5917 55.994 38.6637 55.994C38.7357 55.982 38.8077 55.976 38.8797 55.976C39.1197 55.976 39.2817 56.042 39.3657 56.174C39.4617 56.294 39.5157 56.426 39.5277 56.57C39.5397 56.822 39.4797 57.008 39.3477 57.128C39.2157 57.248 39.0717 57.32 38.9157 57.344C38.8677 57.356 38.8257 57.362 38.7897 57.362C38.7537 57.362 38.7057 57.356 38.6457 57.344C38.5857 57.344 38.5077 57.338 38.4117 57.326C38.3277 57.314 38.2197 57.308 38.0877 57.308C37.0437 57.344 36.0297 57.38 35.0457 57.416C34.0737 57.44 33.1077 57.464 32.1477 57.488C31.1877 57.512 30.2157 57.536 29.2317 57.56C28.2597 57.584 27.2637 57.602 26.2437 57.614C26.0517 57.626 25.8777 57.59 25.7217 57.506C25.5657 57.41 25.4457 57.296 25.3617 57.164C25.2657 57.032 25.2057 56.894 25.1817 56.75C25.1697 56.594 25.1997 56.456 25.2717 56.336C25.3317 56.24 25.4157 56.186 25.5237 56.174C25.6437 56.162 25.7697 56.162 25.9017 56.174C26.0337 56.198 26.1717 56.228 26.3157 56.264C26.4597 56.288 26.5977 56.3 26.7297 56.3C27.5577 56.312 28.4037 56.318 29.2677 56.318C30.1317 56.306 30.9957 56.282 31.8597 56.246L31.8237 53.834C31.5357 53.834 31.2537 53.834 30.9777 53.834C30.7017 53.834 30.4257 53.822 30.1497 53.798C29.8617 53.798 29.5617 53.708 29.2497 53.528C28.9497 53.336 28.7997 52.97 28.7997 52.43C28.7877 52.202 28.7817 51.92 28.7817 51.584C28.7937 51.236 28.7997 50.882 28.7997 50.522C28.7997 50.15 28.7877 49.802 28.7637 49.478C28.7517 49.142 28.7217 48.866 28.6737 48.65C28.6137 48.458 28.5657 48.278 28.5297 48.11C28.4937 47.942 28.4697 47.786 28.4577 47.642C28.4457 47.51 28.4577 47.396 28.4937 47.3C28.5417 47.204 28.6257 47.132 28.7457 47.084ZM30.2757 50.72C30.2757 51.068 30.2757 51.404 30.2757 51.728C30.2757 52.052 30.2817 52.322 30.2937 52.538C31.0617 52.598 31.8117 52.622 32.5437 52.61C33.2877 52.586 34.0197 52.538 34.7397 52.466C34.7397 52.346 34.7397 52.214 34.7397 52.07C34.7397 51.926 34.7457 51.776 34.7577 51.62C34.7577 51.464 34.7577 51.302 34.7577 51.134C34.7697 50.966 34.7817 50.792 34.7937 50.612C34.0857 50.612 33.3417 50.624 32.5617 50.648C31.7937 50.66 31.0317 50.684 30.2757 50.72ZM52.6921 47.768C52.6561 47.948 52.6081 48.122 52.5481 48.29C52.4881 48.446 52.4281 48.596 52.3681 48.74C52.6921 48.92 53.0341 49.118 53.3941 49.334C53.7541 49.538 54.1081 49.76 54.4561 50C54.8041 50.24 55.1281 50.486 55.4281 50.738C55.7401 50.99 56.0101 51.236 56.2381 51.476C56.3221 51.584 56.3461 51.722 56.3101 51.89C56.2741 52.046 56.2021 52.166 56.0941 52.25C55.9621 52.37 55.8241 52.436 55.6801 52.448C55.5361 52.448 55.4101 52.394 55.3021 52.286C54.7621 51.854 54.1741 51.452 53.5381 51.08C52.9021 50.696 52.2421 50.342 51.5581 50.018C51.1021 50.582 50.5741 51.074 49.9741 51.494C49.3861 51.914 48.8041 52.232 48.2281 52.448C48.0721 52.52 47.9221 52.562 47.7781 52.574C47.6341 52.586 47.4781 52.55 47.3101 52.466C47.1301 52.406 47.0281 52.292 47.0041 52.124C46.9801 51.944 47.0761 51.794 47.2921 51.674C47.6881 51.458 48.0841 51.212 48.4801 50.936C48.8761 50.66 49.2421 50.366 49.5781 50.054C49.9261 49.742 50.2321 49.406 50.4961 49.046C50.7601 48.686 50.9641 48.308 51.1081 47.912C51.1921 47.66 51.2341 47.444 51.2341 47.264C51.2461 47.072 51.2521 46.904 51.2521 46.76C51.2521 46.616 51.2701 46.496 51.3061 46.4C51.3421 46.304 51.4321 46.226 51.5761 46.166C51.7801 46.082 51.9601 46.088 52.1161 46.184C52.2721 46.268 52.3981 46.4 52.4941 46.58C52.5901 46.76 52.6561 46.964 52.6921 47.192C52.7281 47.408 52.7281 47.6 52.6921 47.768ZM45.9601 53.978C46.8721 53.99 47.7961 53.99 48.7321 53.978C49.6801 53.966 50.6281 53.948 51.5761 53.924C52.5241 53.9 53.4721 53.87 54.4201 53.834C55.3681 53.798 56.3161 53.762 57.2641 53.726C57.3241 53.726 57.3901 53.726 57.4621 53.726C57.5341 53.714 57.6061 53.702 57.6781 53.69C57.7501 53.678 57.8221 53.672 57.8941 53.672C57.9661 53.66 58.0381 53.654 58.1101 53.654C58.3501 53.654 58.5121 53.72 58.5961 53.852C58.6921 53.972 58.7461 54.104 58.7581 54.248C58.7701 54.5 58.7101 54.686 58.5781 54.806C58.4461 54.926 58.3021 54.998 58.1461 55.022C58.0981 55.034 58.0561 55.04 58.0201 55.04C57.9841 55.04 57.9361 55.034 57.8761 55.022C57.8161 55.022 57.7381 55.022 57.6421 55.022C57.5581 55.01 57.4501 55.004 57.3181 55.004C56.8981 55.016 56.4901 55.028 56.0941 55.04C55.6981 55.052 55.3021 55.064 54.9061 55.076C54.5221 55.088 54.1321 55.1 53.7361 55.112C53.3521 55.124 52.9741 55.13 52.6021 55.13V58.424C52.6021 59.072 52.5241 59.534 52.3681 59.81C52.2241 60.098 52.0441 60.248 51.8281 60.26C51.5761 60.284 51.3901 60.164 51.2701 59.9C51.1621 59.648 51.1081 59.324 51.1081 58.928L51.0541 55.166C50.1421 55.202 49.2241 55.232 48.3001 55.256C47.3881 55.268 46.4461 55.28 45.4741 55.292C45.2821 55.304 45.1081 55.268 44.9521 55.184C44.7961 55.088 44.6761 54.974 44.5921 54.842C44.4961 54.71 44.4361 54.572 44.4121 54.428C44.4001 54.284 44.4301 54.152 44.5021 54.032C44.5621 53.936 44.6461 53.882 44.7541 53.87C44.8741 53.846 45.0001 53.84 45.1321 53.852C45.2641 53.876 45.4021 53.906 45.5461 53.942C45.6901 53.966 45.8281 53.978 45.9601 53.978ZM59.8077 47.228C59.8317 47.156 59.8737 47.102 59.9337 47.066C59.9937 47.03 60.0657 47 60.1497 46.976C60.2337 46.964 60.3297 46.958 60.4377 46.958C60.5577 46.958 60.6897 46.946 60.8337 46.922C61.0497 46.91 61.3077 46.892 61.6077 46.868C61.9077 46.844 62.2257 46.82 62.5617 46.796C62.9097 46.76 63.2637 46.724 63.6237 46.688C63.9837 46.652 64.3317 46.604 64.6677 46.544C64.7877 46.544 64.9137 46.55 65.0457 46.562C65.1897 46.574 65.3217 46.616 65.4417 46.688C65.5857 46.772 65.7117 46.892 65.8197 47.048C65.9277 47.204 65.9637 47.354 65.9277 47.498C65.7957 47.978 65.6157 48.446 65.3877 48.902C65.1717 49.346 64.9257 49.766 64.6497 50.162C65.1057 50.522 65.5437 50.9 65.9637 51.296C66.3957 51.692 66.7677 52.07 67.0797 52.43C67.1517 52.538 67.1577 52.676 67.0977 52.844C67.0377 53.012 66.9537 53.138 66.8457 53.222C66.7017 53.33 66.5517 53.384 66.3957 53.384C66.2397 53.384 66.1137 53.33 66.0177 53.222C65.6337 52.826 65.2497 52.484 64.8657 52.196C64.4817 51.896 64.0977 51.608 63.7137 51.332C63.2817 51.812 62.8377 52.232 62.3817 52.592C61.9257 52.952 61.5117 53.222 61.1397 53.402C60.9957 53.474 60.8457 53.528 60.6897 53.564C60.5457 53.6 60.3837 53.582 60.2037 53.51C60.0237 53.462 59.9097 53.354 59.8617 53.186C59.8257 53.006 59.9097 52.844 60.1137 52.7C60.5217 52.412 60.9357 52.088 61.3557 51.728C61.7877 51.356 62.1897 50.96 62.5617 50.54C62.9337 50.12 63.2697 49.682 63.5697 49.226C63.8697 48.77 64.1097 48.302 64.2897 47.822C64.0017 47.858 63.7257 47.894 63.4617 47.93C63.1977 47.966 62.9397 47.996 62.6877 48.02C62.4237 48.056 62.1597 48.092 61.8957 48.128C61.6437 48.152 61.3917 48.176 61.1397 48.2C60.9477 48.236 60.7617 48.23 60.5817 48.182C60.4017 48.134 60.2457 48.062 60.1137 47.966C59.9817 47.87 59.8857 47.756 59.8257 47.624C59.7657 47.492 59.7597 47.36 59.8077 47.228ZM68.8797 44.906C69.0477 44.762 69.2457 44.726 69.4737 44.798C69.7017 44.858 69.8817 44.96 70.0138 45.104C70.2537 45.38 70.4457 45.692 70.5898 46.04C70.7457 46.376 70.8237 46.724 70.8237 47.084L70.6798 52.376C70.6677 52.556 70.6497 52.754 70.6257 52.97C70.6018 53.186 70.5658 53.396 70.5178 53.6C70.4578 53.792 70.3738 53.96 70.2658 54.104C70.1578 54.236 70.0258 54.308 69.8697 54.32C69.7378 54.344 69.6298 54.296 69.5457 54.176C69.4618 54.056 69.3958 53.912 69.3478 53.744C69.2878 53.576 69.2458 53.402 69.2217 53.222C69.2097 53.042 69.2037 52.886 69.2037 52.754L69.2397 50.108L67.4937 50.324C67.0497 50.396 66.7137 50.354 66.4857 50.198C66.2697 50.042 66.1797 49.82 66.2157 49.532C66.2277 49.364 66.2937 49.238 66.4137 49.154C66.5337 49.058 66.6597 49.004 66.7917 48.992C66.8757 48.992 66.9597 48.992 67.0437 48.992C67.1397 48.992 67.2357 48.992 67.3317 48.992C67.4157 48.992 67.4997 48.992 67.5837 48.992C67.6797 48.992 67.7757 48.986 67.8717 48.974C68.1117 48.962 68.3457 48.95 68.5737 48.938C68.8017 48.914 69.0297 48.884 69.2578 48.848L69.2758 47.606C69.2758 47.438 69.2577 47.234 69.2217 46.994C69.1977 46.742 69.1437 46.526 69.0597 46.346C68.9517 46.142 68.8437 45.896 68.7357 45.608C68.6398 45.32 68.6878 45.086 68.8797 44.906ZM63.2457 57.488C63.2457 57.008 63.3417 56.576 63.5337 56.192C63.7257 55.808 63.9897 55.478 64.3257 55.202C64.6497 54.926 65.0337 54.716 65.4777 54.572C65.9217 54.428 66.3897 54.356 66.8817 54.356C67.3617 54.356 67.8237 54.428 68.2678 54.572C68.7118 54.716 69.0958 54.926 69.4198 55.202C69.7558 55.466 70.0198 55.796 70.2117 56.192C70.4158 56.576 70.5178 57.008 70.5178 57.488C70.5178 57.98 70.4158 58.418 70.2117 58.802C70.0198 59.186 69.7558 59.516 69.4198 59.792C69.0958 60.056 68.7118 60.26 68.2678 60.404C67.8237 60.548 67.3617 60.62 66.8817 60.62C66.3897 60.632 65.9217 60.566 65.4777 60.422C65.0337 60.278 64.6497 60.068 64.3257 59.792C63.9897 59.516 63.7257 59.186 63.5337 58.802C63.3417 58.418 63.2457 57.98 63.2457 57.488ZM64.7217 57.488C64.7217 57.968 64.9077 58.394 65.2797 58.766C65.6637 59.138 66.1977 59.318 66.8817 59.306C67.5537 59.306 68.0817 59.126 68.4657 58.766C68.8497 58.394 69.0417 57.968 69.0417 57.488C69.0417 57.008 68.8497 56.588 68.4657 56.228C68.0817 55.856 67.5537 55.67 66.8817 55.67C66.1977 55.67 65.6637 55.85 65.2797 56.21C64.9077 56.57 64.7217 56.996 64.7217 57.488Z" fill="#4A4950"/>
</svg>
