<svg width="46" height="45" viewBox="0 0 46 45" fill="none" xmlns="http://www.w3.org/2000/svg">
<path d="M8.7647 40.4844L3.68778 35.8964L1 43.511L1.74089 44L8.7647 40.4844Z" fill="#5F5E64"/>
<path d="M8.26697 30.0648L6.77375 27.0787L18.0226 15.2117C19.2785 15.6923 20.7622 16.6947 22.2332 17.9475L10.6561 29.0781L8.26697 30.0648Z" fill="#9E7D6D" fill-opacity="0.71"/>
<path d="M26.086 7.49336C23.4697 9.95043 20.6576 12.6526 18.0226 15.2117C19.2785 15.6923 20.7622 16.6947 22.2332 17.9475L30.6652 9.84065C29.0674 8.56278 27.4443 7.65409 26.086 7.49336Z" fill="#A5A19C"/>
<path d="M11.6516 34.055L10.6561 29.0781L22.2332 17.9475C24.2618 19.6753 26.2663 21.8795 27.6156 23.8483L16.1312 34.4531L11.6516 34.055Z" fill="#B79F93" fill-opacity="0.68"/>
<path d="M16.5294 37.4578L18.6199 36.643C18.6199 36.643 23.3445 32.3034 29.1719 26.8705C28.9483 26.0302 28.3898 24.978 27.6156 23.8483L16.1312 34.4531L16.5294 37.4578Z" fill="#9E7D6D"/>
<path d="M36.1806 15.9393C34.826 13.8424 32.7674 11.522 30.6652 9.84065L22.2332 17.9475C24.2618 19.6753 26.2663 21.8795 27.6156 23.8483L36.1806 15.9393Z" fill="#A5A19C" fill-opacity="0.3"/>
<path d="M29.1719 26.8705C31.8761 24.3494 34.9484 21.4651 37.6349 18.9254C37.4063 18.0739 36.89 17.0372 36.1806 15.9393L27.6156 23.8483C28.3898 24.978 28.9483 26.0302 29.1719 26.8705Z" fill="#5F5E64" fill-opacity="0.47"/>
<path d="M45 11.8582C43.905 8.17537 37.2353 0.710094 33.2534 1.0087C31.3694 2.59893 28.8359 4.91074 26.086 7.49336C27.4443 7.65409 29.0674 8.56278 30.6652 9.84065C32.7674 11.522 34.826 13.8424 36.1806 15.9393C36.89 17.0372 37.4063 18.0739 37.6349 18.9254C39.8133 16.8754 42.8618 13.9502 45 11.8582Z" fill="#A3DCCD"/>
<path d="M8.26697 30.0648L6.77375 27.0787L3.68778 35.8964L8.7647 40.4844L16.5294 37.4578L16.1312 34.4531L11.6516 34.055L10.6561 29.0781L8.26697 30.0648Z" fill="#F8E0CF"/>
<path d="M33.2534 1.0087L33.1973 0.260797L32.9552 0.278954L32.7696 0.435568L33.2534 1.0087ZM45 11.8582L45.5245 12.3943L45.8478 12.078L45.7189 11.6445L45 11.8582ZM18.6199 36.643L18.8923 37.3417L19.0235 37.2906L19.1273 37.1953L18.6199 36.643ZM1 43.511L0.292765 43.2614C0.178128 43.5861 0.29942 43.9473 0.586868 44.137L1 43.511ZM6.77375 27.0787L6.22944 26.5627L6.11892 26.6793L6.06585 26.831L6.77375 27.0787ZM8.26697 30.0648L7.59616 30.4003L7.90827 31.0244L8.55325 30.758L8.26697 30.0648ZM11.6516 34.055L10.9162 34.2021L11.0262 34.7524L11.5852 34.8021L11.6516 34.055ZM18.0226 15.2117L17.5001 14.6737L17.489 14.6845L17.4783 14.6958L18.0226 15.2117ZM26.086 7.49336L25.5725 6.94666L26.086 7.49336ZM36.1806 15.9393L36.8106 15.5323L36.1806 15.9393ZM30.6652 9.84065L31.1336 9.25494L30.6652 9.84065ZM1.74089 44L1.32776 44.626L1.68926 44.8645L2.07658 44.6707L1.74089 44ZM33.3095 1.7566C34.0771 1.69903 35.0783 2.01863 36.2312 2.70459C37.3654 3.37948 38.5584 4.35635 39.6804 5.47221C40.8003 6.58592 41.8316 7.82026 42.6463 8.99477C43.4685 10.18 44.0401 11.2615 44.2811 12.072L45.7189 11.6445C45.4124 10.6136 44.7397 9.38085 43.8788 8.13982C43.0106 6.88812 41.9203 5.58426 40.7381 4.40862C39.5582 3.23513 38.2687 2.17149 36.9982 1.41553C35.7463 0.670642 34.4206 0.169059 33.1973 0.260797L33.3095 1.7566ZM6.10295 27.4141L7.59616 30.4003L8.93777 29.7294L7.44456 26.7433L6.10295 27.4141ZM8.55325 30.758L10.9424 29.7714L10.3698 28.3849L7.98068 29.3716L8.55325 30.758ZM9.92068 29.2252L10.9162 34.2021L12.387 33.9079L11.3915 28.931L9.92068 29.2252ZM11.5852 34.8021L16.0648 35.2002L16.1976 33.7061L11.718 33.3079L11.5852 34.8021ZM18.3475 35.9442L16.257 36.759L16.8018 38.1566L18.8923 37.3417L18.3475 35.9442ZM15.3877 34.5517L15.7859 37.5563L17.2729 37.3593L16.8747 34.3546L15.3877 34.5517ZM28.6605 26.3219C25.7478 29.0374 23.1107 31.4797 21.2017 33.2432C20.2472 34.1249 19.4748 34.8368 18.9411 35.3283C18.6743 35.574 18.4671 35.7647 18.3266 35.8938C18.2564 35.9584 18.2028 36.0076 18.1669 36.0407C18.1489 36.0572 18.1353 36.0697 18.1262 36.0781C18.1217 36.0822 18.1182 36.0854 18.116 36.0875C18.1148 36.0885 18.114 36.0893 18.1134 36.0898C18.1131 36.0901 18.1129 36.0903 18.1128 36.0904C18.1127 36.0905 18.1126 36.0905 18.1126 36.0906C18.1126 36.0906 18.1126 36.0906 18.6199 36.643C19.1273 37.1953 19.1273 37.1953 19.1273 37.1953C19.1273 37.1952 19.1274 37.1952 19.1275 37.1951C19.1276 37.195 19.1278 37.1948 19.1281 37.1945C19.1287 37.194 19.1296 37.1932 19.1307 37.1921C19.133 37.19 19.1365 37.1868 19.1411 37.1826C19.1502 37.1742 19.1639 37.1617 19.1819 37.1451C19.218 37.1119 19.2716 37.0626 19.342 36.9979C19.4827 36.8686 19.6901 36.6777 19.9572 36.4317C20.4915 35.9398 21.2644 35.2273 22.2195 34.345C24.1297 32.5804 26.7686 30.1365 29.6834 27.419L28.6605 26.3219ZM18.5451 15.7497C21.1784 13.1923 23.9873 10.4933 26.5994 8.04006L25.5725 6.94666C22.9522 9.40761 20.1368 12.1129 17.5001 14.6737L18.5451 15.7497ZM26.5994 8.04006C29.3473 5.4593 31.869 3.15869 33.7372 1.58183L32.7696 0.435568C30.8698 2.03917 28.3244 4.36218 25.5725 6.94666L26.5994 8.04006ZM44.4755 11.3221C42.3408 13.4107 39.2958 16.3325 37.1209 18.3792L38.1489 19.4716C40.3309 17.4182 43.3829 14.4897 45.5245 12.3943L44.4755 11.3221ZM37.1197 18.3804C34.4344 20.9189 31.3634 23.802 28.6605 26.3219L29.6834 27.419C32.3888 24.8968 35.4623 22.0113 38.1501 19.4704L37.1197 18.3804ZM35.5507 16.3462C36.2408 17.4145 36.7109 18.376 36.9106 19.1198L38.3593 18.7309C38.1018 17.7718 37.5392 16.66 36.8106 15.5323L35.5507 16.3462ZM25.9978 8.23817C27.1408 8.37341 28.6268 9.17077 30.1967 10.4264L31.1336 9.25494C29.508 7.95478 27.7479 6.93477 26.1741 6.74856L25.9978 8.23817ZM30.1967 10.4264C32.234 12.0558 34.2386 14.3153 35.5507 16.3462L36.8106 15.5323C35.4133 13.3695 33.3007 10.9882 31.1336 9.25494L30.1967 10.4264ZM16.257 36.759L8.49232 39.7856L9.03709 41.1832L16.8018 38.1566L16.257 36.759ZM4.39568 36.1442L7.48165 27.3265L6.06585 26.831L2.97988 35.6487L4.39568 36.1442ZM3.18492 36.4529L8.26185 41.0409L9.26756 39.928L4.19064 35.34L3.18492 36.4529ZM2.15402 43.374L1.41313 42.8851L0.586868 44.137L1.32776 44.626L2.15402 43.374ZM7.31807 27.5947L18.5669 15.7277L17.4783 14.6958L6.22944 26.5627L7.31807 27.5947ZM2.98055 35.6468L0.292765 43.2614L1.70723 43.7606L4.39502 36.1461L2.98055 35.6468ZM8.42901 39.8137L1.4052 43.3293L2.07658 44.6707L9.1004 41.1551L8.42901 39.8137ZM11.1759 29.6188L22.753 18.4882L21.7134 17.4069L10.1363 28.5375L11.1759 29.6188ZM22.753 18.4882L31.185 10.3813L30.1454 9.3L21.7134 17.4069L22.753 18.4882ZM17.7546 15.9122C18.8936 16.3481 20.3011 17.2871 21.7469 18.5185L22.7195 17.3765C21.2234 16.1023 19.6635 15.0366 18.2907 14.5113L17.7546 15.9122ZM21.7469 18.5185C23.7298 20.2074 25.6884 22.363 26.9969 24.2723L28.2342 23.4244C26.8442 21.396 24.7938 19.1433 22.7195 17.3765L21.7469 18.5185ZM26.9969 24.2723C27.7545 25.3777 28.2563 26.3463 28.4472 27.0634L29.8967 26.6776C29.6403 25.7141 29.0251 24.5784 28.2342 23.4244L26.9969 24.2723ZM16.64 35.0042L28.1244 24.3994L27.1068 23.2973L15.6224 33.9021L16.64 35.0042ZM28.1244 24.3994L36.6895 16.4903L35.6718 15.3882L27.1068 23.2973L28.1244 24.3994Z" fill="#5F5E64"/>
</svg>
