<svg width="67" height="70" viewBox="0 0 67 70" fill="none" xmlns="http://www.w3.org/2000/svg">
<path d="M4.40349 47.9436C4.60749 47.8596 4.79949 47.8476 4.97949 47.9076C5.17149 47.9676 5.29149 48.0756 5.33949 48.2316C5.44749 48.6276 5.53149 49.0716 5.59149 49.5636C5.66349 50.0556 5.72349 50.5656 5.77149 51.0936C5.81949 51.6216 5.85549 52.1436 5.87949 52.6596C5.90349 53.1756 5.92749 53.6436 5.95149 54.0636C6.52749 54.0756 7.10349 54.0396 7.67949 53.9556C8.25549 53.8716 8.90949 53.7516 9.64149 53.5956C9.77349 53.5716 9.89949 53.6196 10.0195 53.7396C10.1395 53.8596 10.2055 54.0096 10.2175 54.1896C10.2175 54.3456 10.1815 54.4896 10.1095 54.6216C10.0375 54.7536 9.94749 54.8376 9.83949 54.8736C9.29949 55.0536 8.63949 55.2036 7.85949 55.3236C7.07949 55.4316 6.32349 55.4556 5.59149 55.3956C5.26749 55.3716 4.99749 55.2576 4.78149 55.0536C4.57749 54.8496 4.46949 54.5496 4.45749 54.1536C4.43349 53.7456 4.40949 53.3076 4.38549 52.8396C4.37349 52.3596 4.34949 51.8796 4.31349 51.3996C4.28949 50.9316 4.24749 50.4636 4.18749 49.9956C4.13949 49.5276 4.07949 49.0956 4.00749 48.6996C3.97149 48.5796 3.98349 48.4416 4.04349 48.2856C4.11549 48.1296 4.23549 48.0156 4.40349 47.9436ZM12.5935 50.7516C12.7255 50.7516 12.8455 50.7516 12.9535 50.7516C13.0735 50.7396 13.1875 50.7276 13.2955 50.7156C13.3915 50.7036 13.4755 50.6976 13.5475 50.6976C13.6315 50.6856 13.7095 50.6736 13.7815 50.6616C13.8295 50.6616 13.8775 50.6616 13.9255 50.6616C13.9855 50.6616 14.0395 50.6556 14.0875 50.6436L14.1055 47.4036C14.1055 47.2356 14.0875 47.0316 14.0515 46.7916C14.0155 46.5396 13.9555 46.3236 13.8715 46.1436C13.7515 45.9396 13.6435 45.6936 13.5475 45.4056C13.4515 45.1176 13.4995 44.8836 13.6915 44.7036C13.8595 44.5596 14.0515 44.5236 14.2675 44.5956C14.4955 44.6556 14.6755 44.7576 14.8075 44.9016C15.0355 45.1776 15.2215 45.4896 15.3655 45.8376C15.5215 46.1736 15.5995 46.5216 15.5995 46.8816L15.4735 57.9516C15.4615 58.1316 15.4435 58.3296 15.4195 58.5456C15.3955 58.7616 15.3535 58.9716 15.2935 59.1756C15.2335 59.3676 15.1495 59.5296 15.0415 59.6616C14.9335 59.8056 14.8015 59.8836 14.6455 59.8956C14.5255 59.9196 14.4235 59.8716 14.3395 59.7516C14.2675 59.6316 14.2075 59.4876 14.1595 59.3196C14.1235 59.1516 14.0935 58.9776 14.0695 58.7976C14.0575 58.6176 14.0515 58.4616 14.0515 58.3296L14.0875 51.9396C13.9555 51.9396 13.8295 51.9456 13.7095 51.9576C13.5895 51.9576 13.4695 51.9576 13.3495 51.9576C13.2175 51.9576 13.0855 51.9636 12.9535 51.9756C12.8215 51.9756 12.6895 51.9756 12.5575 51.9756L12.4855 56.5476C12.4735 56.7276 12.4555 56.9316 12.4315 57.1596C12.4195 57.3756 12.3835 57.5796 12.3235 57.7716C12.2635 57.9636 12.1795 58.1316 12.0715 58.2756C11.9755 58.4076 11.8495 58.4796 11.6935 58.4916C11.5735 58.5156 11.4715 58.4676 11.3875 58.3476C11.3035 58.2276 11.2375 58.0836 11.1895 57.9156C11.1415 57.7476 11.1055 57.5736 11.0815 57.3936C11.0695 57.2016 11.0635 57.0396 11.0635 56.9076L11.1355 49.0236C11.1355 48.8436 11.1175 48.6336 11.0815 48.3936C11.0455 48.1536 10.9855 47.9436 10.9015 47.7636C10.7935 47.5476 10.6915 47.3016 10.5955 47.0256C10.4995 46.7376 10.5415 46.5036 10.7215 46.3236C10.8895 46.1796 11.0815 46.1376 11.2975 46.1976C11.5255 46.2576 11.7055 46.3596 11.8375 46.5036C12.0655 46.7796 12.2515 47.0916 12.3955 47.4396C12.5515 47.7756 12.6295 48.1236 12.6295 48.4836L12.5935 50.7516ZM24.061 52.8216C24.097 52.6416 24.181 52.5156 24.313 52.4436C24.457 52.3596 24.631 52.3236 24.835 52.3356C24.991 52.3596 25.219 52.3776 25.519 52.3896C25.819 52.3896 26.161 52.3896 26.545 52.3896C26.533 52.1736 26.509 51.9276 26.473 51.6516C26.449 51.3636 26.407 51.0756 26.347 50.7876C26.239 50.4036 26.179 50.0676 26.167 49.7796C26.155 49.4916 26.239 49.3056 26.419 49.2216C26.695 49.1016 26.989 49.2096 27.301 49.5456C27.613 49.8816 27.793 50.4216 27.841 51.1656C27.841 51.2736 27.841 51.3816 27.841 51.4896C27.853 51.5856 27.859 51.6816 27.859 51.7776C27.871 51.8856 27.877 51.9936 27.877 52.1016C27.889 52.1976 27.895 52.2936 27.895 52.3896C28.063 52.3896 28.231 52.3896 28.399 52.3896C28.579 52.3776 28.759 52.3716 28.939 52.3716C29.107 52.3596 29.281 52.3536 29.461 52.3536C29.641 52.3416 29.821 52.3296 30.001 52.3176C30.013 51.8856 30.013 51.4056 30.001 50.8776C29.989 50.3496 29.947 49.9056 29.875 49.5456C29.839 49.4136 29.875 49.2696 29.983 49.1136C30.091 48.9456 30.265 48.8496 30.505 48.8256C30.733 48.8136 30.919 48.8736 31.063 49.0056C31.219 49.1376 31.315 49.2876 31.351 49.4556C31.399 49.9116 31.417 50.3736 31.405 50.8416C31.405 51.3096 31.387 51.7776 31.351 52.2456C31.675 52.2336 31.981 52.2096 32.269 52.1736C32.557 52.1376 32.815 52.0956 33.043 52.0476C33.175 52.0236 33.301 52.0716 33.421 52.1916C33.541 52.3116 33.607 52.4616 33.619 52.6416C33.619 52.7976 33.583 52.9416 33.511 53.0736C33.439 53.1936 33.349 53.2716 33.241 53.3076C32.953 53.4036 32.425 53.4816 31.657 53.5416C30.901 53.6016 30.085 53.6436 29.209 53.6676C28.321 53.7036 27.463 53.7216 26.635 53.7216C25.819 53.7216 25.207 53.6976 24.799 53.6496C24.475 53.6136 24.259 53.5236 24.151 53.3796C24.055 53.2236 24.025 53.0376 24.061 52.8216ZM25.717 47.1156C26.089 47.1036 26.557 47.0916 27.121 47.0796C27.685 47.0556 28.261 47.0316 28.849 47.0076C29.425 46.9836 29.965 46.9596 30.469 46.9356C30.985 46.9116 31.375 46.8816 31.639 46.8456C31.771 46.8336 31.909 46.8216 32.053 46.8096C32.209 46.7856 32.353 46.7736 32.485 46.7736C32.725 46.7736 32.887 46.8396 32.971 46.9716C33.067 47.1036 33.121 47.2416 33.133 47.3856C33.145 47.6376 33.085 47.8236 32.953 47.9436C32.821 48.0516 32.677 48.1236 32.521 48.1596C32.473 48.1716 32.431 48.1776 32.395 48.1776C32.359 48.1656 32.311 48.1536 32.251 48.1416C32.191 48.1416 32.113 48.1416 32.017 48.1416C31.933 48.1296 31.825 48.1236 31.693 48.1236C31.441 48.1476 31.045 48.1776 30.505 48.2136C29.965 48.2376 29.377 48.2676 28.741 48.3036C28.105 48.3396 27.469 48.3696 26.833 48.3936C26.197 48.4056 25.663 48.4116 25.231 48.4116C25.039 48.4116 24.865 48.3696 24.709 48.2856C24.553 48.2016 24.433 48.0936 24.349 47.9616C24.253 47.8296 24.193 47.6916 24.169 47.5476C24.145 47.4036 24.169 47.2716 24.241 47.1516C24.301 47.0556 24.385 47.0016 24.493 46.9896C24.613 46.9656 24.745 46.9656 24.889 46.9896C25.021 47.0136 25.159 47.0436 25.303 47.0796C25.447 47.1156 25.585 47.1276 25.717 47.1156ZM23.143 56.0976C24.055 56.1096 24.979 56.1096 25.915 56.0976C26.863 56.0856 27.811 56.0676 28.759 56.0436C29.707 56.0076 30.655 55.9716 31.603 55.9356C32.551 55.8996 33.499 55.8636 34.447 55.8276C34.507 55.8276 34.573 55.8276 34.645 55.8276C34.717 55.8156 34.789 55.8096 34.861 55.8096C34.933 55.7976 35.005 55.7916 35.077 55.7916C35.149 55.7796 35.221 55.7736 35.293 55.7736C35.533 55.7736 35.695 55.8396 35.779 55.9716C35.875 56.0916 35.929 56.2236 35.941 56.3676C35.953 56.6196 35.893 56.8056 35.761 56.9256C35.629 57.0456 35.485 57.1176 35.329 57.1416C35.281 57.1536 35.239 57.1596 35.203 57.1596C35.167 57.1596 35.119 57.1536 35.059 57.1416C34.999 57.1416 34.921 57.1356 34.825 57.1236C34.741 57.1116 34.633 57.1056 34.501 57.1056C33.457 57.1416 32.443 57.1776 31.459 57.2136C30.487 57.2376 29.521 57.2616 28.561 57.2856C27.601 57.3096 26.629 57.3336 25.645 57.3576C24.673 57.3816 23.677 57.3996 22.657 57.4116C22.465 57.4236 22.291 57.3876 22.135 57.3036C21.979 57.2076 21.859 57.0936 21.775 56.9616C21.679 56.8296 21.619 56.6916 21.595 56.5476C21.583 56.3916 21.613 56.2536 21.685 56.1336C21.745 56.0376 21.829 55.9836 21.937 55.9716C22.057 55.9596 22.183 55.9596 22.315 55.9716C22.447 55.9956 22.585 56.0256 22.729 56.0616C22.873 56.0856 23.011 56.0976 23.143 56.0976ZM39.6187 47.0976C39.6907 46.9896 39.7987 46.9296 39.9427 46.9176C40.0987 46.8936 40.2487 46.8816 40.3927 46.8816C41.3527 46.8696 42.3127 46.8456 43.2727 46.8096C44.2447 46.7736 45.2047 46.7196 46.1527 46.6476C46.3927 46.6476 46.6267 46.7376 46.8547 46.9176C47.0827 47.0976 47.1907 47.3256 47.1787 47.6016C47.1667 47.7696 47.1547 47.9676 47.1427 48.1956C47.1307 48.4236 47.1187 48.6516 47.1067 48.8796C47.1067 49.1076 47.1007 49.3296 47.0887 49.5456C47.0767 49.7496 47.0647 49.9176 47.0527 50.0496C47.0047 50.4096 46.8727 50.6376 46.6567 50.7336C46.4407 50.8176 46.2067 50.8596 45.9547 50.8596C45.5587 50.8716 45.1627 50.8836 44.7667 50.8956C44.3707 50.9076 43.9747 50.9196 43.5787 50.9316C43.1827 50.9556 42.7867 50.9736 42.3907 50.9856C41.9947 50.9976 41.5987 51.0096 41.2027 51.0216L41.5987 52.5876C42.4507 52.6116 43.3207 52.6236 44.2087 52.6236C45.0967 52.6116 45.9847 52.5696 46.8727 52.4976C47.1247 52.4736 47.3047 52.5276 47.4127 52.6596C47.5327 52.7916 47.5927 52.9356 47.5927 53.0916C47.5687 53.3676 47.4667 53.5596 47.2867 53.6676C47.1067 53.7636 46.9267 53.8116 46.7467 53.8116C46.5427 53.8236 46.3447 53.8356 46.1527 53.8476C45.9607 53.8476 45.7747 53.8476 45.5947 53.8476C45.4027 53.8596 45.2167 53.8656 45.0367 53.8656C44.8567 53.8656 44.6827 53.8656 44.5147 53.8656V53.9556L44.4787 56.0076C44.8627 55.9956 45.2527 55.9836 45.6487 55.9716C46.0447 55.9596 46.4407 55.9476 46.8367 55.9356C47.2327 55.9236 47.6287 55.9116 48.0247 55.8996C48.4207 55.8756 48.8167 55.8516 49.2127 55.8276C49.2727 55.8276 49.3387 55.8276 49.4107 55.8276C49.4827 55.8156 49.5547 55.8096 49.6267 55.8096C49.6987 55.7976 49.7707 55.7916 49.8427 55.7916C49.9147 55.7796 49.9867 55.7736 50.0587 55.7736C50.2987 55.7736 50.4607 55.8396 50.5447 55.9716C50.6407 56.0916 50.6947 56.2236 50.7067 56.3676C50.7187 56.6196 50.6587 56.8056 50.5267 56.9256C50.3947 57.0456 50.2507 57.1176 50.0947 57.1416C50.0467 57.1536 50.0047 57.1596 49.9687 57.1596C49.9327 57.1596 49.8847 57.1536 49.8247 57.1416C49.7647 57.1416 49.6867 57.1356 49.5907 57.1236C49.5067 57.1116 49.3987 57.1056 49.2667 57.1056C48.2227 57.1416 47.2087 57.1776 46.2247 57.2136C45.2527 57.2376 44.2867 57.2616 43.3267 57.2856C42.3667 57.3096 41.3947 57.3336 40.4107 57.3576C39.4387 57.3816 38.4427 57.3996 37.4227 57.4116C37.2307 57.4236 37.0567 57.3876 36.9007 57.3036C36.7447 57.2076 36.6247 57.0936 36.5407 56.9616C36.4447 56.8296 36.3847 56.6916 36.3607 56.5476C36.3487 56.3916 36.3787 56.2536 36.4507 56.1336C36.5107 56.0376 36.5947 55.9836 36.7027 55.9716C36.8227 55.9596 36.9487 55.9596 37.0807 55.9716C37.2127 55.9956 37.3507 56.0256 37.4947 56.0616C37.6387 56.0856 37.7767 56.0976 37.9087 56.0976C38.7367 56.1096 39.5827 56.1156 40.4467 56.1156C41.3107 56.1036 42.1747 56.0796 43.0387 56.0436L43.0027 53.8836C42.7627 53.8836 42.5287 53.8836 42.3007 53.8836C42.0847 53.8716 41.8687 53.8536 41.6527 53.8296C41.2447 53.8056 40.9087 53.7156 40.6447 53.5596C40.3927 53.4036 40.2187 53.1276 40.1227 52.7316C40.0867 52.5876 40.0447 52.4256 39.9967 52.2456C39.9607 52.0656 39.9187 51.8856 39.8707 51.7056C39.8227 51.5136 39.7687 51.3216 39.7087 51.1296C39.6607 50.9256 39.6007 50.7336 39.5287 50.5536C39.4687 50.4216 39.4747 50.2596 39.5467 50.0676C39.6187 49.8756 39.7987 49.7796 40.0867 49.7796C41.0227 49.7796 41.9527 49.7616 42.8767 49.7256C43.8007 49.6896 44.7247 49.6236 45.6487 49.5276L45.6667 47.9796C44.8267 48.0276 43.9927 48.0696 43.1647 48.1056C42.3367 48.1416 41.5087 48.1776 40.6807 48.2136C40.5127 48.2256 40.3507 48.2016 40.1947 48.1416C40.0387 48.0696 39.9067 47.9736 39.7987 47.8536C39.6907 47.7456 39.6127 47.6256 39.5647 47.4936C39.5287 47.3616 39.5467 47.2296 39.6187 47.0976ZM51.2163 51.7596C51.2523 51.5796 51.3303 51.4656 51.4503 51.4176C51.5823 51.3696 51.7503 51.3516 51.9543 51.3636C52.0983 51.3876 52.2663 51.3996 52.4583 51.3996C52.6623 51.3996 52.8903 51.3996 53.1423 51.3996C53.1303 51.1836 53.1123 50.9796 53.0883 50.7876C53.0643 50.5956 53.0283 50.3616 52.9803 50.0856C52.9323 49.8936 52.8903 49.7136 52.8543 49.5456C52.8183 49.3776 52.7943 49.2216 52.7823 49.0776C52.7703 48.9456 52.7823 48.8316 52.8183 48.7356C52.8543 48.6396 52.9323 48.5676 53.0523 48.5196C53.3763 48.4116 53.6703 48.5256 53.9343 48.8616C54.2103 49.1856 54.3963 49.7196 54.4923 50.4636C54.5043 50.6436 54.5163 50.7996 54.5283 50.9316C54.5403 51.0516 54.5523 51.1836 54.5643 51.3276C54.7803 51.3276 54.9963 51.3216 55.2123 51.3096C55.4403 51.2856 55.6623 51.2616 55.8783 51.2376C55.8903 50.8776 55.8843 50.4936 55.8603 50.0856C55.8363 49.6776 55.8003 49.2276 55.7523 48.7356C55.7283 48.6036 55.7763 48.4716 55.8963 48.3396C56.0283 48.1956 56.1903 48.1236 56.3823 48.1236C56.6703 48.1236 56.8743 48.1776 56.9943 48.2856C57.1143 48.3936 57.1923 48.5316 57.2283 48.6996C57.2643 49.0716 57.2823 49.4676 57.2823 49.8876C57.2943 50.2956 57.2943 50.6976 57.2823 51.0936C57.5223 51.0696 57.7563 51.0456 57.9843 51.0216C58.2123 50.9856 58.4343 50.9436 58.6503 50.8956C58.7823 50.8716 58.9083 50.9196 59.0283 51.0396C59.1483 51.1476 59.2143 51.2916 59.2263 51.4716C59.2263 51.6276 59.1903 51.7656 59.1183 51.8856C59.0463 52.0056 58.9563 52.0836 58.8483 52.1196C58.5603 52.2156 58.1163 52.3056 57.5163 52.3896C56.9283 52.4616 56.2923 52.5216 55.6083 52.5696C54.9243 52.6296 54.2523 52.6716 53.5923 52.6956C52.9323 52.7076 52.3983 52.6896 51.9903 52.6416C51.6663 52.6056 51.4383 52.5036 51.3063 52.3356C51.1863 52.1676 51.1563 51.9756 51.2163 51.7596ZM52.8723 46.5036C53.2443 46.4916 53.6283 46.4796 54.0243 46.4676C54.4323 46.4436 54.8343 46.4196 55.2303 46.3956C55.6143 46.3716 55.9803 46.3476 56.3283 46.3236C56.6763 46.2996 56.9823 46.2696 57.2463 46.2336C57.3783 46.2216 57.5163 46.2096 57.6603 46.1976C57.8163 46.1736 57.9603 46.1616 58.0923 46.1616C58.3323 46.1616 58.4943 46.2276 58.5783 46.3596C58.6743 46.4916 58.7283 46.6296 58.7403 46.7736C58.7523 47.0256 58.6923 47.2116 58.5603 47.3316C58.4283 47.4396 58.2843 47.5116 58.1283 47.5476C58.0803 47.5596 58.0383 47.5656 58.0023 47.5656C57.9663 47.5536 57.9183 47.5416 57.8583 47.5296C57.7983 47.5296 57.7203 47.5296 57.6243 47.5296C57.5403 47.5176 57.4323 47.5116 57.3003 47.5116C57.0483 47.5356 56.7303 47.5656 56.3463 47.6016C55.9743 47.6256 55.5663 47.6556 55.1223 47.6916C54.6783 47.7276 54.2163 47.7576 53.7363 47.7816C53.2683 47.7936 52.8183 47.7996 52.3863 47.7996C52.1943 47.7996 52.0203 47.7576 51.8643 47.6736C51.7083 47.5896 51.5883 47.4816 51.5043 47.3496C51.4083 47.2176 51.3483 47.0796 51.3243 46.9356C51.3003 46.7916 51.3243 46.6596 51.3963 46.5396C51.4563 46.4436 51.5403 46.3896 51.6483 46.3776C51.7683 46.3536 51.9003 46.3536 52.0443 46.3776C52.1763 46.4016 52.3143 46.4316 52.4583 46.4676C52.6023 46.5036 52.7403 46.5156 52.8723 46.5036ZM60.8283 44.7036C60.9963 44.5596 61.1943 44.5176 61.4223 44.5776C61.6503 44.6376 61.8303 44.7396 61.9623 44.8836C62.2023 45.1596 62.3943 45.4716 62.5383 45.8196C62.6943 46.1556 62.7723 46.5036 62.7723 46.8636L62.6283 51.2736C62.6163 51.4536 62.5983 51.6576 62.5743 51.8856C62.5503 52.1016 62.5143 52.3056 62.4663 52.4976C62.4063 52.7016 62.3223 52.8756 62.2143 53.0196C62.1063 53.1516 61.9743 53.2236 61.8183 53.2356C61.6863 53.2596 61.5783 53.2116 61.4943 53.0916C61.4103 52.9716 61.3443 52.8276 61.2963 52.6596C61.2363 52.4916 61.1943 52.3176 61.1703 52.1376C61.1583 51.9456 61.1523 51.7836 61.1523 51.6516L61.2243 47.4036C61.2243 47.2236 61.2063 47.0136 61.1703 46.7736C61.1463 46.5336 61.0923 46.3236 61.0083 46.1436C60.9483 46.0356 60.8883 45.9216 60.8283 45.8016C60.7683 45.6696 60.7203 45.5376 60.6843 45.4056C60.6483 45.2736 60.6363 45.1476 60.6483 45.0276C60.6723 44.9076 60.7323 44.7996 60.8283 44.7036ZM54.2043 54.3156C54.2643 54.2076 54.3723 54.1476 54.5283 54.1356C54.6843 54.1116 54.8343 54.0996 54.9783 54.0996C55.4583 54.0996 55.9683 54.0936 56.5083 54.0816C57.0603 54.0576 57.6183 54.0336 58.1823 54.0096C58.7343 53.9976 59.2803 53.9796 59.8203 53.9556C60.3723 53.9196 60.8883 53.8836 61.3683 53.8476C61.6083 53.8476 61.8423 53.9376 62.0703 54.1176C62.2983 54.2976 62.4063 54.5256 62.3943 54.8016C62.3823 54.9696 62.3703 55.1436 62.3583 55.3236C62.3583 55.4916 62.3523 55.6596 62.3403 55.8276C62.3283 55.9956 62.3163 56.1576 62.3043 56.3136C62.3043 56.4696 62.2983 56.6136 62.2863 56.7456C62.2383 57.1176 62.0763 57.3636 61.8003 57.4836C61.5363 57.5916 61.2783 57.6396 61.0263 57.6276C60.5583 57.6276 60.1083 57.6336 59.6763 57.6456C59.2563 57.6456 58.8363 57.6516 58.4163 57.6636C58.0083 57.6756 57.6063 57.6936 57.2103 57.7176C56.8143 57.7296 56.4243 57.7416 56.0403 57.7536L56.3823 58.9596C57.2463 58.9716 58.1643 58.9716 59.1363 58.9596C60.1083 58.9476 61.0383 58.9056 61.9263 58.8336C62.1783 58.8096 62.3643 58.8636 62.4843 58.9956C62.6043 59.1276 62.6643 59.2716 62.6643 59.4276C62.6403 59.7036 62.5383 59.8956 62.3583 60.0036C62.1783 60.1116 61.9983 60.1656 61.8183 60.1656C61.2543 60.1656 60.7383 60.1716 60.2703 60.1836C59.8023 60.1956 59.3583 60.2076 58.9383 60.2196C58.5183 60.2316 58.1103 60.2436 57.7143 60.2556C57.3303 60.2676 56.9403 60.2676 56.5443 60.2556C56.1363 60.2556 55.8063 60.1656 55.5543 59.9856C55.3143 59.8176 55.1343 59.5356 55.0143 59.1396C54.9663 59.0076 54.9183 58.8756 54.8703 58.7436C54.8343 58.6116 54.7923 58.4796 54.7443 58.3476C54.7083 58.2276 54.6603 58.1076 54.6003 57.9876C54.5523 57.8556 54.4983 57.7296 54.4383 57.6096C54.2823 57.3456 54.2583 57.1056 54.3663 56.8896C54.4863 56.6616 54.6903 56.5476 54.9783 56.5476C55.4583 56.5716 55.9683 56.5836 56.5083 56.5836C57.0603 56.5716 57.6003 56.5536 58.1283 56.5296C58.6563 56.5056 59.1603 56.4816 59.6403 56.4576C60.1203 56.4216 60.5403 56.3856 60.9003 56.3496L60.9183 55.1436C60.4983 55.1676 60.0423 55.1916 59.5503 55.2156C59.0703 55.2396 58.5783 55.2576 58.0743 55.2696C57.5823 55.2936 57.0903 55.3176 56.5983 55.3416C56.1183 55.3656 55.6743 55.3836 55.2663 55.3956C55.0983 55.4076 54.9363 55.3836 54.7803 55.3236C54.6243 55.2516 54.4923 55.1616 54.3843 55.0536C54.2763 54.9456 54.1983 54.8316 54.1503 54.7116C54.1143 54.5796 54.1323 54.4476 54.2043 54.3156Z" fill="#4A4950"/>
<path d="M44.1602 0C40.0811 0 35.6882 0.934548 32.655 3.50456C29.6218 0.934548 25.2289 0 21.1498 0C18.1166 0 14.8951 0.514001 12.1966 1.84573C10.6695 2.61673 9.64453 4.27556 9.64453 6.16802V32.5223C9.64453 35.5596 12.1966 37.8025 14.8323 37.0548C16.8824 36.4707 19.0579 36.2137 21.1498 36.2137C24.4131 36.2137 27.8856 36.8212 30.6886 38.3632C31.9438 39.0641 33.3662 39.0641 34.6004 38.3632C37.4035 36.7978 40.876 36.2137 44.1393 36.2137C46.2312 36.2137 48.4067 36.4707 50.4567 37.0548C53.0925 37.8258 55.6445 35.5829 55.6445 32.5223V6.16802C55.6445 4.27556 54.6195 2.61673 53.0925 1.84573C50.4149 0.514001 47.1934 0 44.1602 0ZM51.4817 29.742C51.4817 31.2139 50.2685 32.2886 48.9715 32.0316C47.4026 31.7045 45.771 31.5644 44.1602 31.5644C40.6041 31.5644 35.479 33.083 32.655 35.0689V8.1773C35.479 6.19138 40.6041 4.67274 44.1602 4.67274C46.0847 4.67274 47.9883 4.88301 49.8082 5.32693C50.7705 5.56056 51.4817 6.51847 51.4817 7.61657V29.742Z" fill="#524F4D"/>
<path d="M36.7969 15.2098C36.1275 15.2098 35.5208 14.7425 35.3117 13.9949C35.0397 13.0837 35.4999 12.079 36.3157 11.7987C39.5372 10.6305 43.7 10.2567 47.5281 10.7473C48.3858 10.8641 49.0133 11.7286 48.9087 12.6865C48.8042 13.6444 48.0302 14.3453 47.1725 14.2285C43.7837 13.7846 40.0811 14.135 37.278 15.1397C37.1107 15.163 36.9433 15.2098 36.7969 15.2098Z" fill="#524F4D"/>
<path d="M36.7969 21.4245C36.1275 21.4245 35.5208 20.9572 35.3117 20.2096C35.0397 19.2984 35.4999 18.2938 36.3157 18.0134C39.5163 16.8452 43.7 16.4714 47.5281 16.9621C48.3858 17.0789 49.0133 17.9433 48.9087 18.9012C48.8042 19.8591 48.0302 20.5601 47.1725 20.4432C43.7837 19.9993 40.0811 20.3498 37.278 21.3544C37.1107 21.4012 36.9433 21.4245 36.7969 21.4245Z" fill="#524F4D"/>
<path d="M36.7969 27.6393C36.1275 27.6393 35.5208 27.172 35.3117 26.4244C35.0397 25.5132 35.4999 24.5085 36.3157 24.2282C39.5163 23.06 43.7 22.6862 47.5281 23.1768C48.3858 23.2936 49.0133 24.1581 48.9087 25.116C48.8042 26.0739 48.0302 26.7514 47.1725 26.658C43.7837 26.2141 40.0811 26.5645 37.278 27.5692C37.1107 27.6159 36.9433 27.6393 36.7969 27.6393Z" fill="#524F4D"/>
</svg>
