<svg width="18" height="23" viewBox="0 0 18 23" fill="none" xmlns="http://www.w3.org/2000/svg">
<path d="M13.8776 3.17573H16.993C17.5594 3.17573 18 3.62483 18 4.20223V4.94003C18 5.4212 17.6538 5.87029 17.2133 5.96653V21.2036C17.2133 22.198 16.3951 23 15.3881 23H2.61189C1.6049 23 0.818182 22.198 0.818182 21.2036V5.96653C0.377622 5.87029 0 5.4212 0 4.94003V4.20223C0 3.62483 0.472028 3.17573 1.03846 3.17573H4.12238V1.82845C4.12238 0.834031 4.90909 0 5.91608 0H12.0839C13.0909 0 13.8776 0.834031 13.8776 1.82845V3.17573ZM12.0839 1.60391H5.91608C5.75874 1.60391 5.66434 1.70014 5.66434 1.82845V3.17573H12.3357V1.82845C12.3357 1.70014 12.2413 1.60391 12.0839 1.60391ZM3.11538 20.947H14.9161C15.042 20.947 15.1364 20.7866 15.1364 20.6583V5.99861H2.86364V20.6583C2.86364 20.7866 2.95804 20.947 3.11538 20.947ZM5.53846 19.7601H5.34965C4.78322 19.7601 4.31119 19.2789 4.31119 18.7015V8.21199C4.31119 7.66667 4.78322 7.21757 5.34965 7.21757H5.53846C6.07343 7.21757 6.54545 7.66667 6.54545 8.21199V18.7015C6.54545 19.2789 6.07343 19.7601 5.53846 19.7601ZM9.09441 19.7601H8.93706C8.37063 19.7601 7.8986 19.2789 7.8986 18.7015V8.21199C7.8986 7.66667 8.37063 7.21757 8.93706 7.21757H9.09441C9.66084 7.21757 10.1329 7.66667 10.1329 8.21199V18.7015C10.1329 19.2789 9.66084 19.7601 9.09441 19.7601ZM12.6503 19.7601H12.493C11.9266 19.7601 11.486 19.2789 11.486 18.7015V8.21199C11.486 7.66667 11.9266 7.21757 12.493 7.21757H12.6503C13.2168 7.21757 13.6888 7.66667 13.6888 8.21199V18.7015C13.6888 19.2789 13.2168 19.7601 12.6503 19.7601Z" fill="black"/>
</svg>
