<svg width="23" height="21" viewBox="0 0 23 21" fill="none" xmlns="http://www.w3.org/2000/svg">
<g clip-path="url(#clip0_323_2984)">
<path d="M11.4911 21.0688C17.5959 21.0688 22.5447 16.3524 22.5447 10.5344C22.5447 4.71642 17.5959 0 11.4911 0C5.38637 0 0.4375 4.71642 0.4375 10.5344C0.4375 16.3524 5.38637 21.0688 11.4911 21.0688Z" fill="#626069"/>
<path d="M11.4911 11.6631C13.6714 11.6631 15.4388 9.9787 15.4388 7.90084C15.4388 5.82299 13.6714 4.13855 11.4911 4.13855C9.31085 4.13855 7.5434 5.82299 7.5434 7.90084C7.5434 9.9787 9.31085 11.6631 11.4911 11.6631Z" fill="white"/>
<mask id="mask0_323_2984" style="mask-type:luminance" maskUnits="userSpaceOnUse" x="1" y="1" width="21" height="19">
<path d="M11.4911 19.9402C16.9418 19.9402 21.3604 15.7291 21.3604 10.5344C21.3604 5.33979 16.9418 1.12869 11.4911 1.12869C6.04046 1.12869 1.62183 5.33979 1.62183 10.5344C1.62183 15.7291 6.04046 19.9402 11.4911 19.9402Z" fill="white"/>
</mask>
<g mask="url(#mask0_323_2984)">
<path d="M11.4911 27.0885C15.6336 27.0885 18.9918 23.8881 18.9918 19.9402C18.9918 15.9922 15.6336 12.7918 11.4911 12.7918C7.34864 12.7918 3.99048 15.9922 3.99048 19.9402C3.99048 23.8881 7.34864 27.0885 11.4911 27.0885Z" fill="white"/>
</g>
</g>
<defs>
<clipPath id="clip0_323_2984">
<rect width="22" height="21" fill="white" transform="translate(0.4375)"/>
</clipPath>
</defs>
</svg>
