<svg width="54" height="66" viewBox="0 0 54 66" fill="none" xmlns="http://www.w3.org/2000/svg">
<path d="M43.358 0H12.362L5.71997 12.6667L27.86 38L50 12.6667L43.358 0ZM40.6126 4.22222L43.9336 10.5556H38.0665L34.7455 4.22222H40.6126ZM15.1073 4.22222H20.9744L17.6534 10.5556H11.7863L15.1073 4.22222ZM25.646 28.88L13.3361 14.7778H25.646V28.88ZM22.5907 10.5556L25.9117 4.22222H29.8083L33.1293 10.5556H22.5907ZM30.074 28.88V14.7778H42.3838L30.074 28.88Z" fill="#4A4950"/>
<path d="M5.3702 48.146C5.5742 48.062 5.7662 48.05 5.9462 48.11C6.1382 48.17 6.2582 48.278 6.3062 48.434C6.4142 48.83 6.4982 49.274 6.5582 49.766C6.6302 50.258 6.6902 50.768 6.7382 51.296C6.7862 51.824 6.8222 52.346 6.8462 52.862C6.8702 53.378 6.8942 53.846 6.9182 54.266C7.4942 54.278 8.0702 54.242 8.6462 54.158C9.2222 54.074 9.8762 53.954 10.6082 53.798C10.7402 53.774 10.8662 53.822 10.9862 53.942C11.1062 54.062 11.1722 54.212 11.1842 54.392C11.1842 54.548 11.1482 54.692 11.0762 54.824C11.0042 54.956 10.9142 55.04 10.8062 55.076C10.2662 55.256 9.6062 55.406 8.8262 55.526C8.0462 55.634 7.2902 55.658 6.5582 55.598C6.2342 55.574 5.9642 55.46 5.7482 55.256C5.5442 55.052 5.4362 54.752 5.4242 54.356C5.4002 53.948 5.3762 53.51 5.3522 53.042C5.3402 52.562 5.3162 52.082 5.2802 51.602C5.2562 51.134 5.2142 50.666 5.1542 50.198C5.1062 49.73 5.0462 49.298 4.9742 48.902C4.9382 48.782 4.9502 48.644 5.0102 48.488C5.0822 48.332 5.2022 48.218 5.3702 48.146ZM13.5602 50.954C13.6922 50.954 13.8122 50.954 13.9202 50.954C14.0402 50.942 14.1542 50.93 14.2622 50.918C14.3582 50.906 14.4422 50.9 14.5142 50.9C14.5982 50.888 14.6762 50.876 14.7482 50.864C14.7962 50.864 14.8442 50.864 14.8922 50.864C14.9522 50.864 15.0062 50.858 15.0542 50.846L15.0722 47.606C15.0722 47.438 15.0542 47.234 15.0182 46.994C14.9822 46.742 14.9222 46.526 14.8382 46.346C14.7182 46.142 14.6102 45.896 14.5142 45.608C14.4182 45.32 14.4662 45.086 14.6582 44.906C14.8262 44.762 15.0182 44.726 15.2342 44.798C15.4622 44.858 15.6422 44.96 15.7742 45.104C16.0022 45.38 16.1882 45.692 16.3322 46.04C16.4882 46.376 16.5662 46.724 16.5662 47.084L16.4402 58.154C16.4282 58.334 16.4102 58.532 16.3862 58.748C16.3622 58.964 16.3202 59.174 16.2602 59.378C16.2002 59.57 16.1162 59.732 16.0082 59.864C15.9002 60.008 15.7682 60.086 15.6122 60.098C15.4922 60.122 15.3902 60.074 15.3062 59.954C15.2342 59.834 15.1742 59.69 15.1262 59.522C15.0902 59.354 15.0602 59.18 15.0362 59C15.0242 58.82 15.0182 58.664 15.0182 58.532L15.0542 52.142C14.9222 52.142 14.7962 52.148 14.6762 52.16C14.5562 52.16 14.4362 52.16 14.3162 52.16C14.1842 52.16 14.0522 52.166 13.9202 52.178C13.7882 52.178 13.6562 52.178 13.5242 52.178L13.4522 56.75C13.4402 56.93 13.4222 57.134 13.3982 57.362C13.3862 57.578 13.3502 57.782 13.2902 57.974C13.2302 58.166 13.1462 58.334 13.0382 58.478C12.9422 58.61 12.8162 58.682 12.6602 58.694C12.5402 58.718 12.4382 58.67 12.3542 58.55C12.2702 58.43 12.2042 58.286 12.1562 58.118C12.1082 57.95 12.0722 57.776 12.0482 57.596C12.0362 57.404 12.0302 57.242 12.0302 57.11L12.1022 49.226C12.1022 49.046 12.0842 48.836 12.0482 48.596C12.0122 48.356 11.9522 48.146 11.8682 47.966C11.7602 47.75 11.6582 47.504 11.5622 47.228C11.4662 46.94 11.5082 46.706 11.6882 46.526C11.8562 46.382 12.0482 46.34 12.2642 46.4C12.4922 46.46 12.6722 46.562 12.8042 46.706C13.0322 46.982 13.2182 47.294 13.3622 47.642C13.5182 47.978 13.5962 48.326 13.5962 48.686L13.5602 50.954ZM23.3717 48.578C23.3957 48.506 23.4377 48.452 23.4977 48.416C23.5577 48.38 23.6297 48.35 23.7137 48.326C23.7977 48.314 23.8937 48.308 24.0017 48.308C24.1217 48.308 24.2537 48.296 24.3977 48.272C24.6137 48.26 24.8717 48.242 25.1717 48.218C25.4717 48.194 25.7897 48.17 26.1257 48.146C26.4737 48.11 26.8277 48.074 27.1877 48.038C27.5477 48.002 27.8957 47.954 28.2317 47.894C28.3517 47.894 28.4777 47.9 28.6097 47.912C28.7537 47.924 28.8857 47.966 29.0057 48.038C29.1497 48.122 29.2697 48.242 29.3657 48.398C29.4737 48.554 29.5157 48.704 29.4917 48.848C29.3477 49.436 29.1437 50.024 28.8797 50.612C28.6277 51.2 28.3397 51.764 28.0157 52.304C28.5077 52.724 28.9877 53.156 29.4557 53.6C29.9237 54.044 30.3197 54.464 30.6437 54.86C30.7157 54.968 30.7217 55.106 30.6617 55.274C30.6017 55.442 30.5177 55.568 30.4097 55.652C30.2657 55.76 30.1157 55.814 29.9597 55.814C29.8037 55.814 29.6777 55.76 29.5817 55.652C29.1857 55.256 28.7837 54.878 28.3757 54.518C27.9677 54.158 27.5657 53.828 27.1697 53.528C26.7497 54.08 26.3237 54.56 25.8917 54.968C25.4597 55.364 25.0637 55.652 24.7037 55.832C24.5597 55.904 24.4097 55.958 24.2537 55.994C24.1097 56.03 23.9477 56.012 23.7677 55.94C23.5877 55.892 23.4737 55.784 23.4257 55.616C23.3897 55.448 23.4737 55.286 23.6777 55.13C24.6137 54.398 25.4357 53.546 26.1437 52.574C26.8517 51.602 27.4217 50.468 27.8537 49.172C27.5657 49.208 27.2897 49.244 27.0257 49.28C26.7617 49.316 26.5037 49.346 26.2517 49.37C25.9877 49.406 25.7237 49.442 25.4597 49.478C25.2077 49.502 24.9557 49.526 24.7037 49.55C24.5117 49.586 24.3257 49.58 24.1457 49.532C23.9657 49.484 23.8097 49.412 23.6777 49.316C23.5457 49.22 23.4497 49.106 23.3897 48.974C23.3297 48.842 23.3237 48.71 23.3717 48.578ZM32.2637 44.906C32.4317 44.762 32.6297 44.72 32.8577 44.78C33.0857 44.84 33.2657 44.942 33.3977 45.086C33.6377 45.362 33.8297 45.674 33.9737 46.022C34.1297 46.358 34.2077 46.706 34.2077 47.066L34.0637 58.136C34.0517 58.316 34.0337 58.52 34.0097 58.748C33.9857 58.964 33.9497 59.168 33.9017 59.36C33.8417 59.564 33.7577 59.732 33.6497 59.864C33.5417 60.008 33.4097 60.086 33.2537 60.098C33.1217 60.122 33.0137 60.074 32.9297 59.954C32.8457 59.834 32.7797 59.69 32.7317 59.522C32.6717 59.354 32.6297 59.18 32.6057 59C32.5937 58.808 32.5877 58.646 32.5877 58.514L32.6597 47.606C32.6597 47.426 32.6417 47.216 32.6057 46.976C32.5817 46.736 32.5277 46.526 32.4437 46.346C32.3837 46.238 32.3237 46.124 32.2637 46.004C32.2037 45.872 32.1557 45.74 32.1197 45.608C32.0837 45.476 32.0717 45.35 32.0837 45.23C32.1077 45.11 32.1677 45.002 32.2637 44.906ZM36.516 47.138C36.54 47.066 36.582 47.012 36.642 46.976C36.702 46.94 36.774 46.91 36.858 46.886C36.942 46.874 37.038 46.868 37.146 46.868C37.266 46.868 37.398 46.856 37.542 46.832C37.758 46.82 38.034 46.802 38.37 46.778C38.706 46.754 39.066 46.73 39.45 46.706C39.846 46.67 40.242 46.634 40.638 46.598C41.034 46.562 41.4 46.514 41.736 46.454C41.856 46.454 41.982 46.46 42.114 46.472C42.258 46.484 42.39 46.526 42.51 46.598C42.654 46.682 42.78 46.802 42.888 46.958C42.996 47.114 43.032 47.264 42.996 47.408C42.816 48.092 42.54 48.74 42.168 49.352C41.808 49.952 41.4 50.504 40.944 51.008C40.488 51.5 40.014 51.932 39.522 52.304C39.042 52.664 38.604 52.94 38.208 53.132C38.064 53.204 37.914 53.258 37.758 53.294C37.614 53.33 37.452 53.312 37.272 53.24C37.092 53.192 36.978 53.084 36.93 52.916C36.882 52.736 36.966 52.574 37.182 52.43C38.154 51.734 38.988 51.02 39.684 50.288C40.392 49.544 40.95 48.692 41.358 47.732C41.07 47.768 40.776 47.804 40.476 47.84C40.176 47.876 39.876 47.906 39.576 47.93C39.264 47.966 38.958 48.002 38.658 48.038C38.37 48.062 38.1 48.086 37.848 48.11C37.656 48.146 37.47 48.14 37.29 48.092C37.11 48.044 36.954 47.972 36.822 47.876C36.69 47.78 36.594 47.666 36.534 47.534C36.474 47.402 36.468 47.27 36.516 47.138ZM45.138 44.906C45.306 44.762 45.504 44.726 45.732 44.798C45.96 44.858 46.14 44.96 46.272 45.104C46.512 45.38 46.704 45.692 46.848 46.04C47.004 46.376 47.082 46.724 47.082 47.084L47.028 48.686C47.28 48.686 47.532 48.68 47.784 48.668C48.048 48.644 48.312 48.614 48.576 48.578C48.708 48.578 48.846 48.578 48.99 48.578C49.146 48.566 49.29 48.56 49.422 48.56C49.662 48.584 49.824 48.662 49.908 48.794C49.992 48.914 50.034 49.046 50.034 49.19C50.034 49.442 49.962 49.622 49.818 49.73C49.686 49.838 49.536 49.904 49.368 49.928C49.32 49.94 49.278 49.946 49.242 49.946C49.206 49.934 49.158 49.922 49.098 49.91C49.05 49.898 48.978 49.886 48.882 49.874C48.798 49.862 48.69 49.856 48.558 49.856C48.306 49.868 48.048 49.88 47.784 49.892C47.532 49.904 47.268 49.91 46.992 49.91L46.938 51.494C46.926 51.674 46.908 51.872 46.884 52.088C46.86 52.304 46.824 52.514 46.776 52.718C46.716 52.91 46.632 53.078 46.524 53.222C46.416 53.354 46.284 53.426 46.128 53.438C45.996 53.462 45.888 53.414 45.804 53.294C45.72 53.174 45.654 53.03 45.606 52.862C45.546 52.694 45.504 52.52 45.48 52.34C45.468 52.16 45.462 52.004 45.462 51.872L45.534 47.606C45.534 47.438 45.516 47.234 45.48 46.994C45.456 46.742 45.402 46.526 45.318 46.346C45.21 46.142 45.102 45.896 44.994 45.608C44.898 45.32 44.946 45.086 45.138 44.906ZM38.91 54.536C39.234 54.428 39.54 54.542 39.828 54.878C40.128 55.202 40.314 55.724 40.386 56.444C41.178 56.432 42.018 56.414 42.906 56.39C43.794 56.366 44.646 56.336 45.462 56.3C45.45 56.192 45.438 56.078 45.426 55.958C45.426 55.838 45.42 55.712 45.408 55.58C45.396 55.46 45.384 55.34 45.372 55.22C45.372 55.088 45.366 54.95 45.354 54.806C45.33 54.674 45.366 54.536 45.462 54.392C45.57 54.248 45.75 54.164 46.002 54.14C46.29 54.128 46.494 54.182 46.614 54.302C46.746 54.41 46.83 54.548 46.866 54.716C46.926 55.268 46.95 55.958 46.938 56.786C46.926 57.614 46.89 58.466 46.83 59.342C46.794 59.678 46.71 59.918 46.578 60.062C46.446 60.206 46.176 60.29 45.768 60.314C44.964 60.362 44.058 60.398 43.05 60.422C42.054 60.446 41.142 60.44 40.314 60.404C40.026 60.404 39.726 60.308 39.414 60.116C39.114 59.936 38.964 59.576 38.964 59.036C38.952 58.808 38.946 58.568 38.946 58.316C38.958 58.052 38.964 57.794 38.964 57.542C38.964 57.278 38.952 57.026 38.928 56.786C38.916 56.534 38.886 56.306 38.838 56.102C38.778 55.91 38.73 55.73 38.694 55.562C38.658 55.394 38.634 55.238 38.622 55.094C38.61 54.962 38.622 54.848 38.658 54.752C38.706 54.656 38.79 54.584 38.91 54.536ZM40.422 57.686C40.422 57.818 40.422 57.944 40.422 58.064C40.422 58.184 40.428 58.304 40.44 58.424C40.44 58.544 40.44 58.664 40.44 58.784C40.44 58.904 40.446 59.024 40.458 59.144C41.226 59.204 42.066 59.222 42.978 59.198C43.902 59.186 44.724 59.144 45.444 59.072C45.444 58.964 45.444 58.85 45.444 58.73C45.444 58.61 45.444 58.484 45.444 58.352C45.444 58.232 45.444 58.106 45.444 57.974C45.456 57.83 45.462 57.686 45.462 57.542C44.706 57.554 43.884 57.572 42.996 57.596C42.108 57.62 41.25 57.65 40.422 57.686Z" fill="#4A4950"/>
</svg>
