<svg width="126" height="173" viewBox="0 0 126 173" fill="none" xmlns="http://www.w3.org/2000/svg">
<path fill-rule="evenodd" clip-rule="evenodd" d="M68.2661 46.5089C68.2661 46.5089 58.6323 26.3809 46.7661 24.509C38.5537 23.2135 28.7661 31.509 28.2661 35.009C27.7662 38.509 56.7661 47.509 51.7661 51.009C49.5398 52.5674 43.2661 48.509 36.7661 45.509C30.2661 42.509 24.7661 39.009 18.2661 42.009C11.766 45.009 6.44128 63.509 6.76606 63.509C7.76606 63.509 29.539 59.711 32.2661 59.509C45.7661 58.509 45.0279 62.9609 45.2661 64.509C46.2661 71.009 12.2661 61.509 4.76606 70.009C-2.73394 78.509 0.559005 99.2072 1.76606 99.509C3.83139 100.025 9.38583 95.0702 15.7661 92.509C21.7428 90.1098 28.6279 90.0944 28.7661 90.509C30.2661 95.009 20.7001 98.1804 14.7661 103.009C9.06058 107.652 6.76613 110.009 5.7661 113.009C4.76606 116.009 9.76608 137.009 13.7661 137.009C13.7661 137.009 20.7661 127.509 26.2661 123.009C31.7661 118.509 41.2661 111.509 45.2661 115.509C49.2661 119.509 32.2661 124.509 26.2661 129.509C20.2661 134.509 17.9327 143.009 18.7661 144.009C21.2661 147.009 32.4961 157.434 38.7661 159.009C40.5334 159.453 41.7679 153.036 43.7661 147.009C45.6058 141.459 48.2387 136.239 49.2661 137.009C51.8069 138.912 44.2661 160.009 45.7661 163.009C47.2661 166.009 56.6677 173.521 60.2661 172.509C68.2661 169.009 74.6328 162.528 73.2661 161.009C68.7661 156.009 66.5803 150.109 66.2661 149.009C65.2661 145.509 65.2661 137.009 67.7661 138.509C70.2661 140.009 71.6351 142.586 73.2661 146.009C75.6714 151.057 74.2661 160.009 74.2661 160.009C74.2661 160.009 85.2661 155.509 85.7661 152.009C86.2661 148.509 82.2661 136.009 79.2661 132.009C76.2661 128.009 64.7661 118.509 67.7661 115.509C70.7661 112.509 79.9349 121.336 85.7661 132.009C89.9878 139.736 89.7292 149.107 91.2661 148.509C100.266 145.009 107.608 135.535 106.766 133.009C104.266 125.509 99.1112 118.658 93.2661 114.009C85.2895 107.665 74.0276 105.261 71.7661 100.509C71.2938 99.5167 71.7661 98.509 74.2661 98.009C76.7661 97.509 86.3692 101.27 96.7661 109.509C106.638 117.332 110.723 127.422 111.766 126.509C119.766 119.509 122.698 99.7792 122.266 99.009C120.266 95.4465 114.766 92.009 106.766 87.009C98.7661 82.009 84.7099 83.0782 83.7661 79.009C83.2732 76.8841 85.7661 73.509 88.2661 73.509C90.7661 73.509 97.239 76.0994 106.266 82.009C114.807 87.6003 123.294 94.7383 124.266 94.009C126.266 92.509 126.757 77.1042 124.266 70.509C123.415 68.2562 117.037 63.666 108.266 62.009C102.836 60.983 97.2835 62.557 93.2661 62.009C90.2938 61.6035 87.9353 59.2219 88.2661 58.009C89.7661 52.509 120.266 61.009 121.266 59.509C122.266 58.009 110.766 38.509 100.266 34.509C89.7661 35.009 75.0953 51.8469 74.2661 48.509C72.9985 43.4066 82.2661 15.509 92.7661 8.009C92.4237 6.70515 92.1453 5.5767 91.9169 4.61211L90.7661 0.00886851C70.2661 16.509 68.2661 46.5089 68.2661 46.5089ZM49.7661 70.009C50.7661 68.009 54.2661 65.509 57.2661 65.009C60.2661 64.509 61.8404 65.3452 62.7661 66.509C63.9817 68.0371 63.5066 69.7022 62.7661 71.509C61.8227 73.811 60.0905 74.536 57.8014 75.4942L57.7661 75.509L57.6624 75.5524C54.4326 76.9049 50.1918 78.6807 48.7661 75.509C47.8711 73.5178 48.7661 72.009 49.7661 70.009ZM70.2661 67.509C69.9647 65.8681 70.642 64.7418 71.7661 63.509C74.0025 61.056 77.0639 62.6345 80.2661 63.509C83.3034 64.3385 87.2661 66.509 87.2661 67.509C87.2661 68.509 83.7661 70.009 83.7661 70.009C83.7661 70.009 79.8692 71.6117 77.2661 71.509C75.0415 71.4212 73.3527 71.5708 71.7661 70.009C70.9546 69.2103 70.4718 68.6288 70.2661 67.509ZM41.2661 88.509C41.8097 86.3678 43.1554 85.1612 45.2661 84.509C47.3519 83.8645 49.6391 83.6393 50.7661 85.509C51.6789 87.0233 51.1783 88.4943 50.2661 90.009C49.3996 91.4479 48.3529 91.958 46.7661 92.509C44.9215 93.1495 43.1016 93.9335 41.7661 92.509C40.6894 91.3605 40.8787 90.0349 41.2661 88.509ZM42.2661 99.009C43.862 95.7463 49.7661 93.509 49.7661 93.509C52.7661 92.509 55.0703 93.5663 56.2661 96.009C57.0388 97.5874 56.8464 98.8502 56.2661 100.509C55.3505 103.126 54.0794 103.971 51.7718 105.505L51.7661 105.509C49.7286 106.863 47.6727 107.95 45.2661 107.509C43.0931 107.111 41.8474 106.14 41.2661 104.009C40.7485 102.111 41.3757 100.829 42.2347 99.0732L42.2661 99.009ZM68.2661 85.509C67.6599 84.0693 67.3996 82.8087 68.2661 81.509C69.5659 79.5594 72.2661 80.009 75.2661 81.009C78.2662 82.009 78.7124 82.226 80.7661 84.009C82.361 85.3936 83.7462 85.9619 84.2661 88.009C84.6506 89.523 85.266 91.509 83.7661 92.509C82.2661 93.509 79.6956 92.3418 77.2661 91.509C74.8366 90.6762 68.8723 86.9487 68.2661 85.509Z" fill="#A3DCCD"/>
</svg>
